<svg xmlns="http://www.w3.org/2000/svg" xmlns:xlink="http://www.w3.org/1999/xlink" width="500" zoomAndPan="magnify" viewBox="0 0 375 374.999991" height="500" preserveAspectRatio="xMidYMid meet" version="1.0"><defs><clipPath id="2e7fc78203"><path d="M 88 6 L 290.617188 6 L 290.617188 371.589844 L 88 371.589844 Z M 88 6 " clip-rule="nonzero"/></clipPath></defs><path fill="#f195a5" d="M 234.957031 180.851562 C 232.851562 181.40625 230.71875 181.796875 228.558594 182.019531 C 226.394531 182.246094 224.230469 182.308594 222.058594 182.199219 C 219.886719 182.09375 217.734375 181.820312 215.605469 181.382812 C 213.476562 180.945312 211.394531 180.347656 209.355469 179.589844 C 207.316406 178.832031 205.347656 177.921875 203.453125 176.863281 C 201.554688 175.800781 199.746094 174.601562 198.035156 173.265625 C 196.320312 171.925781 194.71875 170.464844 193.230469 168.882812 C 191.742188 167.296875 190.382812 165.609375 189.152344 163.816406 C 188.925781 163.480469 188.667969 163.171875 188.378906 162.886719 C 188.089844 162.601562 187.78125 162.34375 187.445312 162.121094 C 187.105469 161.894531 186.753906 161.703125 186.378906 161.542969 C 186.007812 161.386719 185.621094 161.265625 185.226562 161.179688 C 184.832031 161.09375 184.429688 161.046875 184.027344 161.039062 C 183.621094 161.03125 183.21875 161.0625 182.820312 161.132812 C 182.421875 161.199219 182.03125 161.304688 181.652344 161.449219 C 181.273438 161.589844 180.910156 161.769531 180.566406 161.980469 C 180.222656 162.191406 179.898438 162.4375 179.601562 162.710938 C 179.300781 162.984375 179.03125 163.28125 178.789062 163.605469 C 178.550781 163.933594 178.339844 164.277344 178.164062 164.640625 C 177.988281 165.007812 177.851562 165.386719 177.746094 165.777344 C 177.644531 166.167969 177.578125 166.566406 177.550781 166.96875 C 177.523438 167.375 177.535156 167.777344 177.582031 168.179688 C 177.632812 168.582031 177.71875 168.972656 177.84375 169.359375 C 177.96875 169.746094 178.128906 170.113281 178.324219 170.46875 C 181.167969 174.746094 184.550781 178.539062 188.480469 181.847656 C 192.40625 185.15625 196.71875 187.847656 201.417969 189.921875 C 188.019531 223.460938 212.347656 258.628906 213.453125 260.140625 C 213.699219 260.46875 213.972656 260.773438 214.277344 261.046875 C 214.582031 261.324219 214.910156 261.570312 215.261719 261.78125 C 215.613281 261.992188 215.980469 262.167969 216.367188 262.3125 C 216.75 262.453125 217.148438 262.554688 217.550781 262.621094 C 217.957031 262.683594 218.363281 262.707031 218.773438 262.695312 C 219.1875 262.679688 219.589844 262.625 219.992188 262.535156 C 220.390625 262.441406 220.777344 262.308594 221.152344 262.140625 C 221.527344 261.972656 221.882812 261.773438 222.21875 261.535156 C 222.550781 261.300781 222.863281 261.03125 223.144531 260.738281 C 223.429688 260.441406 223.683594 260.117188 223.90625 259.773438 C 224.125 259.429688 224.3125 259.066406 224.464844 258.683594 C 224.617188 258.300781 224.730469 257.910156 224.804688 257.507812 C 224.878906 257.101562 224.917969 256.695312 224.914062 256.285156 C 224.910156 255.875 224.867188 255.46875 224.785156 255.066406 C 224.703125 254.664062 224.582031 254.273438 224.425781 253.894531 C 224.269531 253.515625 224.074219 253.15625 223.847656 252.8125 C 223.621094 252.484375 202.117188 221.171875 213.667969 193.765625 C 217.105469 194.460938 220.574219 194.820312 224.078125 194.847656 C 228.710938 194.835938 233.289062 194.308594 237.804688 193.269531 C 238.210938 193.175781 238.605469 193.046875 238.988281 192.875 C 239.371094 192.703125 239.730469 192.5 240.070312 192.257812 C 240.414062 192.015625 240.726562 191.742188 241.011719 191.441406 C 241.300781 191.136719 241.554688 190.808594 241.777344 190.457031 C 242 190.101562 242.1875 189.730469 242.335938 189.339844 C 242.484375 188.949219 242.59375 188.550781 242.667969 188.136719 C 242.738281 187.726562 242.765625 187.3125 242.753906 186.894531 C 242.746094 186.476562 242.691406 186.0625 242.601562 185.65625 C 242.507812 185.25 242.378906 184.855469 242.207031 184.472656 C 242.039062 184.089844 241.832031 183.730469 241.589844 183.390625 C 241.351562 183.046875 241.078125 182.734375 240.773438 182.445312 C 240.472656 182.160156 240.144531 181.902344 239.792969 181.679688 C 239.4375 181.457031 239.066406 181.269531 238.675781 181.121094 C 238.285156 180.972656 237.886719 180.859375 237.476562 180.789062 C 237.0625 180.71875 236.648438 180.6875 236.230469 180.699219 C 235.8125 180.707031 235.402344 180.761719 234.992188 180.851562 Z M 234.957031 180.851562 " fill-opacity="1" fill-rule="nonzero"/><path fill="#f195a5" d="M 218.121094 292.230469 C 191.074219 312.917969 162.714844 288.234375 161.519531 287.140625 C 161.207031 286.867188 160.871094 286.625 160.511719 286.417969 C 160.152344 286.207031 159.777344 286.035156 159.382812 285.902344 C 158.992188 285.765625 158.589844 285.671875 158.175781 285.613281 C 157.765625 285.558594 157.351562 285.542969 156.9375 285.566406 C 156.523438 285.59375 156.117188 285.65625 155.714844 285.761719 C 155.3125 285.867188 154.925781 286.011719 154.550781 286.191406 C 154.175781 286.371094 153.824219 286.585938 153.492188 286.835938 C 153.160156 287.085938 152.855469 287.367188 152.578125 287.675781 C 152.300781 287.984375 152.058594 288.316406 151.847656 288.675781 C 151.632812 289.03125 151.460938 289.40625 151.320312 289.796875 C 151.183594 290.191406 151.082031 290.589844 151.023438 291 C 150.964844 291.414062 150.945312 291.824219 150.964844 292.238281 C 150.984375 292.65625 151.046875 293.0625 151.148438 293.464844 C 151.25 293.867188 151.386719 294.257812 151.566406 294.632812 C 151.742188 295.007812 151.953125 295.363281 152.203125 295.699219 C 152.449219 296.03125 152.726562 296.339844 153.03125 296.617188 C 155.910156 299.144531 158.984375 301.40625 162.25 303.402344 C 165.519531 305.394531 168.9375 307.09375 172.5 308.496094 C 176.0625 309.898438 179.71875 310.988281 183.472656 311.757812 C 187.222656 312.527344 191.011719 312.96875 194.839844 313.082031 C 197.632812 313.082031 200.402344 312.847656 203.15625 312.382812 C 205.910156 311.914062 208.605469 311.226562 211.242188 310.308594 C 213.878906 309.394531 216.421875 308.265625 218.871094 306.921875 C 221.320312 305.582031 223.640625 304.046875 225.832031 302.320312 C 226.179688 302.070312 226.496094 301.789062 226.785156 301.476562 C 227.070312 301.167969 227.328125 300.828125 227.546875 300.464844 C 227.769531 300.101562 227.953125 299.722656 228.097656 299.324219 C 228.242188 298.921875 228.34375 298.511719 228.40625 298.09375 C 228.46875 297.671875 228.492188 297.25 228.46875 296.824219 C 228.445312 296.402344 228.382812 295.984375 228.277344 295.570312 C 228.171875 295.160156 228.023438 294.761719 227.839844 294.378906 C 227.652344 293.996094 227.433594 293.636719 227.175781 293.300781 C 226.917969 292.960938 226.628906 292.652344 226.308594 292.371094 C 225.988281 292.09375 225.644531 291.847656 225.277344 291.636719 C 224.90625 291.425781 224.519531 291.253906 224.117188 291.117188 C 223.714844 290.984375 223.300781 290.890625 222.878906 290.839844 C 222.457031 290.789062 222.035156 290.78125 221.613281 290.816406 C 221.1875 290.847656 220.773438 290.921875 220.363281 291.039062 C 219.953125 291.15625 219.5625 291.3125 219.183594 291.511719 C 218.808594 291.707031 218.453125 291.9375 218.121094 292.203125 Z M 218.121094 292.230469 " fill-opacity="1" fill-rule="nonzero"/><g clip-path="url(#2e7fc78203)"><path fill="#f195a5" d="M 431.933594 334.863281 C 428.570312 334.910156 425.421875 335.757812 422.492188 337.410156 L 383.050781 297.96875 C 382.453125 297.371094 381.765625 296.914062 380.984375 296.589844 C 380.203125 296.269531 379.390625 296.109375 378.546875 296.109375 L 291.078125 296.109375 L 291.078125 266.707031 L 408.292969 266.707031 C 408.542969 267.449219 408.835938 268.175781 409.167969 268.882812 C 409.503906 269.59375 409.878906 270.28125 410.292969 270.945312 C 410.710938 271.609375 411.164062 272.246094 411.652344 272.859375 C 412.144531 273.46875 412.667969 274.050781 413.226562 274.601562 C 413.785156 275.148438 414.375 275.664062 414.992188 276.144531 C 415.613281 276.625 416.257812 277.066406 416.929688 277.472656 C 417.597656 277.878906 418.292969 278.242188 419.003906 278.566406 C 419.71875 278.886719 420.449219 279.167969 421.195312 279.40625 C 421.945312 279.644531 422.703125 279.835938 423.472656 279.984375 C 424.242188 280.132812 425.015625 280.234375 425.796875 280.292969 C 426.578125 280.351562 427.363281 280.359375 428.144531 280.328125 C 428.925781 280.292969 429.707031 280.210938 430.480469 280.085938 C 431.253906 279.957031 432.015625 279.789062 432.769531 279.570312 C 433.523438 279.355469 434.261719 279.09375 434.984375 278.792969 C 435.707031 278.488281 436.410156 278.144531 437.089844 277.761719 C 437.773438 277.375 438.429688 276.953125 439.0625 276.488281 C 439.695312 276.027344 440.300781 275.527344 440.875 274.996094 C 441.449219 274.460938 441.988281 273.894531 442.496094 273.296875 C 443.003906 272.703125 443.472656 272.078125 443.90625 271.425781 C 444.34375 270.773438 444.738281 270.097656 445.089844 269.398438 C 445.445312 268.699219 445.757812 267.980469 446.027344 267.246094 C 446.300781 266.511719 446.527344 265.761719 446.707031 265 C 446.890625 264.238281 447.027344 263.464844 447.117188 262.6875 C 447.210938 261.910156 447.257812 261.128906 447.257812 260.34375 C 447.257812 259.5625 447.210938 258.78125 447.117188 258.003906 C 447.027344 257.222656 446.890625 256.453125 446.707031 255.691406 C 446.527344 254.929688 446.300781 254.179688 446.027344 253.445312 C 445.757812 252.710938 445.445312 251.992188 445.089844 251.292969 C 444.738281 250.59375 444.34375 249.917969 443.90625 249.265625 C 443.472656 248.613281 443.003906 247.988281 442.496094 247.390625 C 441.988281 246.796875 441.449219 246.230469 440.875 245.695312 C 440.300781 245.164062 439.695312 244.664062 439.0625 244.203125 C 438.429688 243.738281 437.773438 243.316406 437.089844 242.929688 C 436.410156 242.542969 435.707031 242.199219 434.984375 241.898438 C 434.261719 241.59375 433.523438 241.335938 432.769531 241.121094 C 432.015625 240.902344 431.253906 240.730469 430.480469 240.605469 C 429.707031 240.480469 428.925781 240.398438 428.144531 240.363281 C 427.363281 240.328125 426.578125 240.339844 425.796875 240.398438 C 425.015625 240.457031 424.242188 240.558594 423.472656 240.707031 C 422.703125 240.855469 421.945312 241.046875 421.195312 241.285156 C 420.449219 241.523438 419.71875 241.800781 419.003906 242.125 C 418.292969 242.449219 417.597656 242.8125 416.929688 243.21875 C 416.257812 243.621094 415.613281 244.066406 414.992188 244.546875 C 414.375 245.027344 413.785156 245.542969 413.226562 246.089844 C 412.667969 246.640625 412.144531 247.222656 411.652344 247.832031 C 411.164062 248.445312 410.710938 249.082031 410.292969 249.746094 C 409.878906 250.410156 409.503906 251.097656 409.167969 251.804688 C 408.835938 252.515625 408.542969 253.242188 408.292969 253.984375 L 291.078125 253.984375 L 291.078125 179.554688 L 375.902344 179.554688 L 395.597656 199.238281 C 394.238281 201.964844 393.550781 204.851562 393.535156 207.902344 C 393.539062 208.554688 393.574219 209.207031 393.640625 209.859375 C 393.707031 210.511719 393.804688 211.15625 393.933594 211.796875 C 394.0625 212.441406 394.226562 213.074219 394.417969 213.699219 C 394.609375 214.324219 394.832031 214.941406 395.085938 215.542969 C 395.335938 216.148438 395.621094 216.738281 395.929688 217.3125 C 396.242188 217.890625 396.578125 218.449219 396.945312 218.992188 C 397.308594 219.535156 397.699219 220.058594 398.117188 220.566406 C 398.535156 221.070312 398.976562 221.550781 399.441406 222.011719 C 399.902344 222.476562 400.390625 222.914062 400.898438 223.324219 C 401.40625 223.738281 401.929688 224.128906 402.476562 224.488281 C 403.023438 224.851562 403.582031 225.1875 404.164062 225.492188 C 404.742188 225.800781 405.332031 226.078125 405.9375 226.324219 C 406.542969 226.574219 407.160156 226.792969 407.785156 226.980469 C 408.414062 227.167969 409.046875 227.328125 409.691406 227.453125 C 410.332031 227.578125 410.980469 227.671875 411.632812 227.734375 C 412.285156 227.796875 412.9375 227.828125 413.589844 227.824219 C 414.246094 227.824219 414.898438 227.789062 415.550781 227.722656 C 416.199219 227.65625 416.847656 227.558594 417.488281 227.429688 C 418.132812 227.300781 418.765625 227.140625 419.390625 226.949219 C 420.015625 226.757812 420.632812 226.535156 421.234375 226.285156 C 421.839844 226.03125 422.429688 225.75 423.007812 225.441406 C 423.582031 225.128906 424.144531 224.792969 424.6875 224.429688 C 425.230469 224.0625 425.753906 223.671875 426.257812 223.257812 C 426.765625 222.839844 427.246094 222.398438 427.710938 221.9375 C 428.171875 221.472656 428.609375 220.988281 429.023438 220.480469 C 429.4375 219.972656 429.828125 219.445312 430.1875 218.902344 C 430.550781 218.355469 430.886719 217.796875 431.195312 217.21875 C 431.5 216.640625 431.78125 216.046875 432.027344 215.441406 C 432.277344 214.835938 432.496094 214.222656 432.6875 213.59375 C 432.875 212.96875 433.03125 212.332031 433.160156 211.691406 C 433.285156 211.046875 433.378906 210.402344 433.445312 209.75 C 433.507812 209.097656 433.539062 208.445312 433.535156 207.789062 C 433.535156 207.136719 433.503906 206.484375 433.4375 205.832031 C 433.371094 205.179688 433.273438 204.535156 433.144531 203.890625 C 433.015625 203.25 432.859375 202.617188 432.667969 201.988281 C 432.476562 201.363281 432.253906 200.75 432.003906 200.144531 C 431.75 199.539062 431.472656 198.949219 431.160156 198.371094 C 430.851562 197.796875 430.515625 197.234375 430.152344 196.691406 C 429.785156 196.148438 429.398438 195.621094 428.980469 195.117188 C 428.566406 194.613281 428.125 194.128906 427.660156 193.664062 C 427.199219 193.203125 426.714844 192.765625 426.207031 192.351562 C 425.699219 191.933594 425.175781 191.546875 424.628906 191.183594 C 424.085938 190.820312 423.523438 190.484375 422.945312 190.175781 C 422.371094 189.867188 421.777344 189.589844 421.171875 189.339844 C 420.566406 189.089844 419.953125 188.871094 419.324219 188.679688 C 418.699219 188.492188 418.066406 188.332031 417.421875 188.207031 C 416.78125 188.078125 416.132812 187.984375 415.480469 187.917969 C 414.832031 187.855469 414.179688 187.824219 413.523438 187.824219 C 410.332031 187.84375 407.328125 188.59375 404.503906 190.074219 L 383.039062 168.597656 C 382.441406 168.003906 381.753906 167.542969 380.972656 167.222656 C 380.191406 166.902344 379.378906 166.742188 378.535156 166.742188 L 291.078125 166.742188 L 291.078125 134.933594 L 390.316406 134.933594 C 390.566406 135.675781 390.859375 136.402344 391.191406 137.109375 C 391.527344 137.816406 391.902344 138.503906 392.316406 139.167969 C 392.730469 139.832031 393.183594 140.46875 393.675781 141.082031 C 394.164062 141.691406 394.6875 142.269531 395.246094 142.820312 C 395.804688 143.371094 396.394531 143.882812 397.011719 144.363281 C 397.628906 144.84375 398.277344 145.285156 398.945312 145.691406 C 399.617188 146.09375 400.308594 146.460938 401.023438 146.78125 C 401.734375 147.105469 402.464844 147.386719 403.210938 147.621094 C 403.957031 147.859375 404.714844 148.050781 405.484375 148.199219 C 406.253906 148.347656 407.027344 148.449219 407.808594 148.507812 C 408.589844 148.566406 409.371094 148.574219 410.15625 148.539062 C 410.9375 148.507812 411.714844 148.425781 412.488281 148.300781 C 413.261719 148.171875 414.023438 148 414.777344 147.785156 C 415.527344 147.570312 416.265625 147.3125 416.988281 147.007812 C 417.710938 146.707031 418.414062 146.363281 419.09375 145.976562 C 419.777344 145.589844 420.433594 145.167969 421.066406 144.703125 C 421.699219 144.242188 422.300781 143.746094 422.875 143.210938 C 423.449219 142.679688 423.988281 142.113281 424.496094 141.515625 C 425.003906 140.921875 425.472656 140.296875 425.90625 139.644531 C 426.339844 138.992188 426.734375 138.316406 427.089844 137.617188 C 427.445312 136.917969 427.753906 136.203125 428.027344 135.46875 C 428.296875 134.734375 428.523438 133.984375 428.703125 133.222656 C 428.886719 132.460938 429.023438 131.691406 429.117188 130.914062 C 429.207031 130.136719 429.253906 129.355469 429.253906 128.574219 C 429.253906 127.789062 429.207031 127.007812 429.117188 126.230469 C 429.023438 125.453125 428.886719 124.683594 428.703125 123.921875 C 428.523438 123.160156 428.296875 122.414062 428.027344 121.675781 C 427.753906 120.941406 427.445312 120.226562 427.089844 119.527344 C 426.734375 118.828125 426.339844 118.152344 425.90625 117.5 C 425.472656 116.851562 425.003906 116.226562 424.496094 115.628906 C 423.988281 115.03125 423.449219 114.46875 422.875 113.933594 C 422.300781 113.402344 421.699219 112.902344 421.066406 112.441406 C 420.433594 111.976562 419.777344 111.554688 419.09375 111.167969 C 418.414062 110.785156 417.710938 110.441406 416.988281 110.136719 C 416.265625 109.835938 415.527344 109.574219 414.777344 109.359375 C 414.023438 109.144531 413.261719 108.972656 412.488281 108.847656 C 411.714844 108.71875 410.9375 108.640625 410.15625 108.605469 C 409.371094 108.570312 408.589844 108.582031 407.808594 108.636719 C 407.027344 108.695312 406.253906 108.796875 405.484375 108.945312 C 404.714844 109.09375 403.957031 109.285156 403.210938 109.523438 C 402.464844 109.761719 401.734375 110.039062 401.023438 110.363281 C 400.308594 110.6875 399.617188 111.050781 398.945312 111.453125 C 398.277344 111.859375 397.628906 112.300781 397.011719 112.78125 C 396.394531 113.261719 395.804688 113.777344 395.246094 114.324219 C 394.6875 114.875 394.164062 115.453125 393.675781 116.066406 C 393.183594 116.675781 392.730469 117.3125 392.316406 117.976562 C 391.902344 118.640625 391.527344 119.328125 391.191406 120.035156 C 390.859375 120.742188 390.566406 121.46875 390.316406 122.210938 L 291.078125 122.210938 L 291.078125 80.402344 L 356.054688 80.402344 C 356.894531 80.402344 357.707031 80.238281 358.484375 79.914062 C 359.261719 79.589844 359.949219 79.128906 360.542969 78.53125 L 390.992188 48.085938 C 393.785156 49.523438 396.753906 50.253906 399.898438 50.273438 C 400.550781 50.277344 401.207031 50.242188 401.859375 50.179688 C 402.507812 50.117188 403.15625 50.019531 403.800781 49.894531 C 404.441406 49.765625 405.078125 49.605469 405.703125 49.417969 C 406.332031 49.226562 406.949219 49.007812 407.554688 48.757812 C 408.15625 48.507812 408.75 48.226562 409.328125 47.917969 C 409.90625 47.609375 410.46875 47.273438 411.011719 46.910156 C 411.558594 46.546875 412.082031 46.15625 412.589844 45.742188 C 413.097656 45.328125 413.582031 44.886719 414.042969 44.425781 C 414.507812 43.960938 414.949219 43.476562 415.363281 42.972656 C 415.78125 42.464844 416.167969 41.9375 416.535156 41.394531 C 416.898438 40.851562 417.234375 40.289062 417.542969 39.710938 C 417.851562 39.132812 418.132812 38.542969 418.382812 37.9375 C 418.636719 37.332031 418.855469 36.714844 419.046875 36.089844 C 419.238281 35.460938 419.394531 34.828125 419.523438 34.183594 C 419.652344 33.542969 419.75 32.894531 419.8125 32.242188 C 419.878906 31.589844 419.910156 30.9375 419.910156 30.28125 C 419.910156 29.628906 419.878906 28.972656 419.816406 28.324219 C 419.75 27.671875 419.65625 27.023438 419.527344 26.378906 C 419.398438 25.738281 419.242188 25.101562 419.050781 24.476562 C 418.863281 23.847656 418.640625 23.234375 418.390625 22.628906 C 418.140625 22.023438 417.859375 21.429688 417.550781 20.851562 C 417.242188 20.273438 416.90625 19.714844 416.542969 19.167969 C 416.179688 18.625 415.789062 18.097656 415.375 17.589844 C 414.960938 17.085938 414.519531 16.601562 414.058594 16.136719 C 413.59375 15.671875 413.109375 15.234375 412.601562 14.816406 C 412.097656 14.402344 411.570312 14.011719 411.027344 13.648438 C 410.480469 13.285156 409.921875 12.945312 409.34375 12.636719 C 408.765625 12.328125 408.171875 12.050781 407.570312 11.796875 C 406.964844 11.546875 406.347656 11.328125 405.71875 11.136719 C 405.09375 10.945312 404.457031 10.785156 403.816406 10.660156 C 403.171875 10.53125 402.527344 10.433594 401.875 10.371094 C 401.222656 10.304688 400.570312 10.273438 399.914062 10.273438 C 399.257812 10.273438 398.605469 10.304688 397.953125 10.371094 C 397.300781 10.433594 396.652344 10.53125 396.011719 10.65625 C 395.367188 10.785156 394.734375 10.945312 394.105469 11.132812 C 393.480469 11.324219 392.863281 11.542969 392.257812 11.796875 C 391.652344 12.046875 391.0625 12.324219 390.484375 12.632812 C 389.90625 12.941406 389.34375 13.277344 388.800781 13.644531 C 388.253906 14.007812 387.730469 14.398438 387.222656 14.8125 C 386.714844 15.226562 386.230469 15.667969 385.769531 16.128906 C 385.304688 16.59375 384.867188 17.078125 384.449219 17.585938 C 384.035156 18.089844 383.644531 18.617188 383.28125 19.160156 C 382.917969 19.707031 382.582031 20.265625 382.269531 20.84375 C 381.960938 21.421875 381.683594 22.015625 381.433594 22.621094 C 381.179688 23.226562 380.960938 23.839844 380.769531 24.46875 C 380.582031 25.09375 380.421875 25.730469 380.292969 26.371094 C 380.164062 27.015625 380.070312 27.660156 380.003906 28.3125 C 379.941406 28.964844 379.910156 29.621094 379.910156 30.273438 C 379.925781 33.371094 380.632812 36.304688 382.035156 39.066406 L 353.417969 67.679688 L 291.078125 67.679688 L 291.078125 25.695312 C 291.078125 24.722656 290.867188 23.800781 290.445312 22.925781 C 290.023438 22.050781 289.433594 21.3125 288.671875 20.707031 C 286.710938 19.242188 284.683594 17.878906 282.589844 16.621094 C 280.492188 15.359375 278.339844 14.203125 276.128906 13.160156 C 273.914062 12.113281 271.65625 11.179688 269.351562 10.359375 C 267.046875 9.539062 264.710938 8.835938 262.335938 8.25 C 259.960938 7.664062 257.5625 7.195312 255.140625 6.851562 C 252.71875 6.503906 250.285156 6.277344 247.839844 6.175781 C 245.398438 6.070312 242.953125 6.089844 240.511719 6.230469 C 238.070312 6.371094 235.640625 6.632812 233.226562 7.015625 C 223.71875 9.195312 214.617188 12.496094 205.921875 16.917969 C 197.226562 21.339844 189.199219 26.75 181.835938 33.148438 C 176.722656 34.105469 171.886719 35.839844 167.332031 38.355469 C 164.800781 39.542969 162.429688 40.992188 160.214844 42.695312 C 157.996094 44.398438 155.988281 46.320312 154.191406 48.460938 C 152.390625 50.601562 150.839844 52.90625 149.539062 55.382812 C 148.238281 57.855469 147.21875 60.441406 146.480469 63.136719 C 145.660156 67.019531 145.445312 70.9375 145.835938 74.886719 C 146.226562 78.835938 147.207031 82.632812 148.769531 86.28125 C 147.765625 86.535156 146.847656 86.675781 145.816406 86.96875 C 143.929688 87.332031 142.070312 87.800781 140.238281 88.378906 C 138.402344 88.953125 136.609375 89.632812 134.855469 90.414062 C 133.097656 91.199219 131.394531 92.078125 129.742188 93.054688 C 128.085938 94.035156 126.492188 95.105469 124.960938 96.265625 C 123.429688 97.425781 121.972656 98.671875 120.582031 100 C 119.195312 101.328125 117.886719 102.734375 116.660156 104.210938 C 115.433594 105.691406 114.296875 107.234375 113.246094 108.847656 C 112.195312 110.457031 111.242188 112.121094 110.382812 113.839844 C 109.417969 116.414062 108.6875 119.054688 108.199219 121.757812 C 107.707031 124.464844 107.460938 127.191406 107.460938 129.941406 C 107.460938 132.691406 107.707031 135.417969 108.199219 138.121094 C 108.6875 140.828125 109.417969 143.46875 110.382812 146.042969 C 101.988281 150.316406 90.027344 161.449219 91.300781 189.972656 C 91.4375 194.121094 92.21875 198.140625 93.644531 202.035156 C 95.066406 205.929688 97.0625 209.503906 99.632812 212.761719 C 98.457031 214.1875 97.363281 215.675781 96.351562 217.226562 C 95.34375 218.777344 94.425781 220.382812 93.597656 222.035156 C 92.773438 223.691406 92.039062 225.386719 91.40625 227.125 C 90.769531 228.863281 90.234375 230.628906 89.800781 232.429688 C 89.367188 234.226562 89.035156 236.042969 88.808594 237.878906 C 88.578125 239.714844 88.453125 241.558594 88.433594 243.410156 C 88.414062 245.257812 88.5 247.105469 88.691406 248.945312 C 88.878906 250.785156 89.171875 252.609375 89.570312 254.417969 C 90.863281 257.976562 92.5 261.371094 94.480469 264.601562 C 96.460938 267.832031 98.746094 270.832031 101.332031 273.597656 C 103.921875 276.363281 106.757812 278.84375 109.851562 281.035156 C 112.941406 283.230469 116.21875 285.089844 119.683594 286.617188 C 119.027344 290.109375 118.710938 293.632812 118.738281 297.1875 C 118.765625 300.742188 119.136719 304.261719 119.847656 307.742188 C 120.5625 311.226562 121.605469 314.605469 122.976562 317.882812 C 124.351562 321.164062 126.027344 324.277344 128.003906 327.230469 C 130.691406 330.640625 133.664062 333.777344 136.921875 336.644531 C 140.175781 339.515625 143.664062 342.066406 147.386719 344.300781 C 151.105469 346.539062 154.996094 348.421875 159.058594 349.949219 C 163.121094 351.476562 167.285156 352.628906 171.554688 353.402344 C 175.375 356.621094 179.433594 359.511719 183.726562 362.066406 C 188.019531 364.625 192.492188 366.816406 197.144531 368.640625 C 201.792969 370.464844 206.5625 371.898438 211.449219 372.945312 C 216.335938 373.988281 221.273438 374.628906 226.265625 374.867188 C 230.808594 374.867188 235.300781 374.382812 239.738281 373.414062 C 242.40625 372.667969 245.03125 371.789062 247.613281 370.777344 C 250.191406 369.769531 252.71875 368.632812 255.183594 367.371094 C 257.652344 366.109375 260.050781 364.730469 262.378906 363.230469 C 264.710938 361.730469 266.960938 360.117188 269.128906 358.390625 C 271.296875 356.667969 273.375 354.839844 275.363281 352.910156 C 277.347656 350.976562 279.234375 348.949219 281.019531 346.832031 C 282.804688 344.710938 284.480469 342.507812 286.046875 340.222656 C 287.613281 337.9375 289.058594 335.578125 290.390625 333.148438 C 290.871094 332.222656 291.113281 331.238281 291.113281 330.195312 L 291.113281 308.691406 L 375.9375 308.691406 L 413.765625 346.609375 C 413.472656 347.257812 413.214844 347.921875 412.992188 348.597656 C 412.769531 349.277344 412.582031 349.960938 412.433594 350.660156 C 412.285156 351.355469 412.175781 352.058594 412.101562 352.769531 C 412.027344 353.480469 411.992188 354.191406 411.996094 354.902344 C 411.996094 355.617188 412.039062 356.328125 412.117188 357.035156 C 412.195312 357.742188 412.3125 358.445312 412.464844 359.140625 C 412.621094 359.839844 412.8125 360.523438 413.039062 361.199219 C 413.265625 361.875 413.53125 362.535156 413.828125 363.183594 C 414.125 363.832031 414.457031 364.460938 414.824219 365.074219 C 415.191406 365.683594 415.589844 366.277344 416.019531 366.84375 C 416.445312 367.414062 416.90625 367.957031 417.394531 368.480469 C 417.878906 369 418.394531 369.492188 418.933594 369.957031 C 419.476562 370.421875 420.039062 370.855469 420.625 371.261719 C 421.210938 371.667969 421.820312 372.039062 422.445312 372.378906 C 423.074219 372.71875 423.714844 373.023438 424.375 373.292969 C 425.035156 373.5625 425.707031 373.800781 426.390625 373.996094 C 427.078125 374.195312 427.769531 374.359375 428.472656 374.484375 C 429.175781 374.605469 429.878906 374.695312 430.59375 374.742188 C 431.304688 374.792969 432.015625 374.800781 432.726562 374.773438 C 433.441406 374.746094 434.148438 374.679688 434.855469 374.578125 C 435.558594 374.472656 436.257812 374.332031 436.949219 374.15625 C 437.636719 373.976562 438.316406 373.761719 438.984375 373.511719 C 439.652344 373.261719 440.304688 372.972656 440.941406 372.652344 C 441.578125 372.332031 442.195312 371.980469 442.792969 371.59375 C 443.390625 371.203125 443.96875 370.785156 444.523438 370.339844 C 445.078125 369.890625 445.605469 369.414062 446.109375 368.90625 C 446.609375 368.402344 447.085938 367.871094 447.53125 367.316406 C 447.976562 366.757812 448.390625 366.179688 448.777344 365.578125 C 449.160156 364.980469 449.511719 364.359375 449.828125 363.722656 C 450.144531 363.082031 450.429688 362.429688 450.675781 361.761719 C 450.925781 361.09375 451.136719 360.414062 451.308594 359.722656 C 451.484375 359.03125 451.621094 358.332031 451.722656 357.625 C 451.820312 356.917969 451.882812 356.210938 451.90625 355.496094 C 451.933594 354.785156 451.917969 354.074219 451.867188 353.363281 C 451.8125 352.652344 451.722656 351.945312 451.59375 351.242188 C 451.46875 350.542969 451.300781 349.851562 451.101562 349.167969 C 450.898438 348.484375 450.660156 347.8125 450.386719 347.152344 C 450.113281 346.496094 449.804688 345.855469 449.460938 345.230469 C 449.117188 344.601562 448.742188 344 448.335938 343.414062 C 447.925781 342.828125 447.488281 342.265625 447.023438 341.730469 C 446.554688 341.191406 446.058594 340.679688 445.535156 340.195312 C 445.015625 339.710938 444.46875 339.253906 443.894531 338.828125 C 443.324219 338.402344 442.730469 338.007812 442.117188 337.644531 C 441.503906 337.28125 440.871094 336.953125 440.222656 336.65625 C 439.574219 336.359375 438.914062 336.101562 438.234375 335.878906 C 437.558594 335.652344 436.871094 335.464844 436.175781 335.316406 C 435.476562 335.164062 434.773438 335.050781 434.066406 334.976562 C 433.355469 334.902344 432.644531 334.863281 431.933594 334.863281 Z M 427.164062 253.015625 C 427.640625 253.015625 428.113281 253.0625 428.582031 253.15625 C 429.050781 253.25 429.507812 253.386719 429.949219 253.570312 C 430.390625 253.753906 430.808594 253.976562 431.207031 254.242188 C 431.601562 254.507812 431.96875 254.808594 432.308594 255.148438 C 432.644531 255.484375 432.949219 255.855469 433.214844 256.25 C 433.480469 256.648438 433.703125 257.066406 433.886719 257.507812 C 434.070312 257.949219 434.207031 258.40625 434.300781 258.875 C 434.394531 259.34375 434.441406 259.816406 434.441406 260.292969 C 434.441406 260.773438 434.394531 261.246094 434.300781 261.714844 C 434.207031 262.183594 434.070312 262.636719 433.886719 263.078125 C 433.703125 263.519531 433.480469 263.941406 433.214844 264.335938 C 432.949219 264.734375 432.644531 265.101562 432.308594 265.441406 C 431.96875 265.777344 431.601562 266.078125 431.207031 266.34375 C 430.808594 266.609375 430.390625 266.835938 429.949219 267.019531 C 429.507812 267.199219 429.050781 267.339844 428.582031 267.433594 C 428.113281 267.523438 427.640625 267.570312 427.164062 267.570312 C 426.683594 267.570312 426.210938 267.523438 425.742188 267.433594 C 425.273438 267.339844 424.820312 267.199219 424.378906 267.019531 C 423.9375 266.835938 423.515625 266.609375 423.117188 266.34375 C 422.722656 266.078125 422.355469 265.777344 422.015625 265.441406 C 421.679688 265.101562 421.375 264.734375 421.109375 264.335938 C 420.847656 263.941406 420.621094 263.519531 420.4375 263.078125 C 420.253906 262.636719 420.117188 262.183594 420.023438 261.714844 C 419.929688 261.246094 419.882812 260.773438 419.886719 260.292969 C 419.882812 259.816406 419.929688 259.34375 420.023438 258.875 C 420.117188 258.40625 420.257812 257.949219 420.4375 257.507812 C 420.621094 257.066406 420.847656 256.648438 421.109375 256.25 C 421.375 255.855469 421.679688 255.484375 422.015625 255.148438 C 422.355469 254.808594 422.722656 254.507812 423.117188 254.242188 C 423.515625 253.976562 423.9375 253.753906 424.378906 253.570312 C 424.820312 253.386719 425.273438 253.25 425.742188 253.15625 C 426.210938 253.0625 426.683594 253.015625 427.164062 253.015625 Z M 420.800781 207.851562 C 420.800781 208.328125 420.757812 208.800781 420.664062 209.269531 C 420.570312 209.738281 420.433594 210.195312 420.25 210.636719 C 420.070312 211.078125 419.84375 211.5 419.582031 211.898438 C 419.316406 212.292969 419.015625 212.664062 418.675781 213 C 418.339844 213.339844 417.972656 213.640625 417.574219 213.910156 C 417.179688 214.175781 416.757812 214.398438 416.316406 214.582031 C 415.875 214.765625 415.421875 214.90625 414.953125 215 C 414.484375 215.09375 414.011719 215.140625 413.53125 215.140625 C 413.054688 215.140625 412.582031 215.09375 412.109375 215.003906 C 411.640625 214.910156 411.1875 214.773438 410.746094 214.589844 C 410.304688 214.40625 409.882812 214.183594 409.484375 213.917969 C 409.089844 213.652344 408.71875 213.351562 408.382812 213.011719 C 408.042969 212.675781 407.742188 212.308594 407.476562 211.910156 C 407.210938 211.511719 406.984375 211.09375 406.800781 210.652344 C 406.617188 210.210938 406.480469 209.757812 406.386719 209.289062 C 406.292969 208.820312 406.246094 208.34375 406.246094 207.867188 C 406.246094 207.390625 406.292969 206.914062 406.386719 206.445312 C 406.476562 205.976562 406.617188 205.523438 406.796875 205.082031 C 406.980469 204.640625 407.207031 204.21875 407.472656 203.820312 C 407.734375 203.425781 408.039062 203.054688 408.375 202.71875 C 408.714844 202.378906 409.082031 202.078125 409.480469 201.8125 C 409.875 201.546875 410.296875 201.324219 410.738281 201.140625 C 411.179688 200.957031 411.632812 200.820312 412.101562 200.726562 C 412.570312 200.632812 413.046875 200.585938 413.523438 200.585938 C 414 200.585938 414.472656 200.632812 414.941406 200.726562 C 415.410156 200.816406 415.863281 200.957031 416.304688 201.136719 C 416.746094 201.320312 417.164062 201.542969 417.5625 201.808594 C 417.960938 202.074219 418.328125 202.375 418.664062 202.710938 C 419.003906 203.050781 419.304688 203.417969 419.570312 203.8125 C 419.835938 204.210938 420.058594 204.628906 420.242188 205.070312 C 420.425781 205.507812 420.566406 205.964844 420.660156 206.433594 C 420.753906 206.898438 420.800781 207.371094 420.800781 207.851562 Z M 409.210938 121.332031 C 409.6875 121.332031 410.160156 121.378906 410.628906 121.472656 C 411.09375 121.566406 411.550781 121.703125 411.992188 121.886719 C 412.429688 122.070312 412.851562 122.292969 413.246094 122.558594 C 413.644531 122.824219 414.011719 123.125 414.347656 123.460938 C 414.683594 123.796875 414.984375 124.164062 415.25 124.5625 C 415.515625 124.957031 415.738281 125.378906 415.921875 125.816406 C 416.105469 126.257812 416.242188 126.714844 416.335938 127.179688 C 416.429688 127.648438 416.476562 128.121094 416.476562 128.597656 C 416.476562 129.074219 416.429688 129.546875 416.335938 130.015625 C 416.242188 130.484375 416.105469 130.9375 415.921875 131.378906 C 415.738281 131.820312 415.515625 132.238281 415.25 132.632812 C 414.984375 133.03125 414.683594 133.398438 414.347656 133.734375 C 414.011719 134.074219 413.644531 134.375 413.246094 134.640625 C 412.851562 134.902344 412.429688 135.128906 411.992188 135.308594 C 411.550781 135.492188 411.09375 135.628906 410.628906 135.722656 C 410.160156 135.816406 409.6875 135.863281 409.210938 135.863281 C 408.734375 135.863281 408.261719 135.816406 407.792969 135.722656 C 407.324219 135.628906 406.871094 135.492188 406.429688 135.308594 C 405.988281 135.128906 405.570312 134.902344 405.175781 134.640625 C 404.777344 134.375 404.410156 134.074219 404.074219 133.734375 C 403.734375 133.398438 403.433594 133.03125 403.167969 132.632812 C 402.90625 132.238281 402.679688 131.820312 402.5 131.378906 C 402.316406 130.9375 402.179688 130.484375 402.085938 130.015625 C 401.992188 129.546875 401.945312 129.074219 401.945312 128.597656 C 401.945312 128.121094 401.988281 127.644531 402.082031 127.175781 C 402.171875 126.707031 402.308594 126.253906 402.492188 125.808594 C 402.671875 125.367188 402.894531 124.949219 403.160156 124.550781 C 403.425781 124.152344 403.726562 123.785156 404.0625 123.445312 C 404.402344 123.105469 404.769531 122.804688 405.167969 122.539062 C 405.5625 122.269531 405.984375 122.046875 406.425781 121.863281 C 406.867188 121.679688 407.320312 121.542969 407.789062 121.449219 C 408.257812 121.355469 408.730469 121.308594 409.210938 121.308594 Z M 399.898438 23.007812 C 400.375 23.007812 400.847656 23.054688 401.316406 23.148438 C 401.789062 23.238281 402.242188 23.378906 402.683594 23.558594 C 403.125 23.742188 403.546875 23.964844 403.945312 24.230469 C 404.34375 24.496094 404.710938 24.796875 405.050781 25.136719 C 405.386719 25.472656 405.691406 25.839844 405.957031 26.238281 C 406.222656 26.636719 406.449219 27.054688 406.628906 27.496094 C 406.8125 27.9375 406.953125 28.394531 407.046875 28.863281 C 407.140625 29.332031 407.1875 29.804688 407.1875 30.28125 C 407.1875 30.761719 407.140625 31.234375 407.046875 31.703125 C 406.953125 32.171875 406.816406 32.628906 406.632812 33.070312 C 406.453125 33.511719 406.226562 33.933594 405.960938 34.328125 C 405.695312 34.726562 405.394531 35.09375 405.054688 35.433594 C 404.71875 35.769531 404.351562 36.074219 403.953125 36.339844 C 403.554688 36.605469 403.132812 36.828125 402.691406 37.011719 C 402.25 37.195312 401.796875 37.332031 401.328125 37.425781 C 400.855469 37.519531 400.382812 37.566406 399.90625 37.566406 C 399.425781 37.566406 398.953125 37.515625 398.484375 37.425781 C 398.015625 37.332031 397.558594 37.191406 397.117188 37.007812 C 396.675781 36.824219 396.257812 36.601562 395.859375 36.335938 C 395.464844 36.066406 395.09375 35.765625 394.757812 35.425781 C 394.417969 35.089844 394.117188 34.71875 393.851562 34.324219 C 393.589844 33.925781 393.363281 33.503906 393.183594 33.0625 C 393 32.621094 392.863281 32.164062 392.769531 31.695312 C 392.675781 31.226562 392.632812 30.753906 392.632812 30.273438 C 392.632812 29.796875 392.679688 29.324219 392.773438 28.859375 C 392.867188 28.390625 393.003906 27.9375 393.1875 27.496094 C 393.371094 27.054688 393.59375 26.636719 393.859375 26.242188 C 394.125 25.84375 394.425781 25.476562 394.761719 25.140625 C 395.101562 24.804688 395.46875 24.503906 395.863281 24.238281 C 396.261719 23.972656 396.679688 23.75 397.117188 23.566406 C 397.558594 23.382812 398.011719 23.246094 398.480469 23.152344 C 398.949219 23.058594 399.421875 23.011719 399.898438 23.007812 Z M 278.355469 328.527344 C 276.117188 332.433594 273.527344 336.089844 270.582031 339.5 C 267.640625 342.90625 264.398438 346 260.859375 348.78125 C 257.320312 351.5625 253.546875 353.980469 249.539062 356.03125 C 245.53125 358.085938 241.367188 359.734375 237.042969 360.984375 C 219.027344 364.914062 199.203125 358.667969 178.160156 342.382812 C 177.277344 341.699219 176.285156 341.273438 175.183594 341.109375 C 171.609375 340.507812 168.117188 339.597656 164.707031 338.371094 C 161.296875 337.144531 158.023438 335.625 154.886719 333.8125 C 151.746094 332.003906 148.792969 329.925781 146.027344 327.589844 C 143.257812 325.25 140.722656 322.683594 138.414062 319.890625 C 136.742188 317.265625 135.359375 314.496094 134.269531 311.582031 C 133.175781 308.667969 132.402344 305.671875 131.941406 302.59375 C 131.476562 299.519531 131.339844 296.425781 131.53125 293.320312 C 131.71875 290.214844 132.226562 287.160156 133.054688 284.164062 C 133.136719 283.792969 133.179688 283.417969 133.191406 283.042969 C 133.203125 282.664062 133.183594 282.289062 133.125 281.914062 C 133.070312 281.539062 132.984375 281.175781 132.863281 280.816406 C 132.742188 280.457031 132.589844 280.113281 132.410156 279.78125 C 132.226562 279.453125 132.019531 279.140625 131.78125 278.84375 C 131.542969 278.550781 131.28125 278.28125 130.996094 278.03125 C 130.710938 277.785156 130.40625 277.566406 130.078125 277.371094 C 129.753906 277.179688 129.414062 277.019531 129.0625 276.886719 C 128.84375 276.796875 106.605469 268.257812 101.820312 250.957031 C 101.34375 248.40625 101.144531 245.832031 101.21875 243.238281 C 101.296875 240.644531 101.648438 238.085938 102.277344 235.570312 C 102.90625 233.050781 103.792969 230.628906 104.945312 228.300781 C 106.09375 225.972656 107.480469 223.796875 109.097656 221.769531 C 112.335938 223.914062 115.703125 225.824219 119.199219 227.503906 C 122.699219 229.183594 126.296875 230.613281 129.992188 231.796875 C 133.691406 232.980469 137.449219 233.902344 141.273438 234.566406 C 145.097656 235.230469 148.949219 235.632812 152.828125 235.765625 L 153.070312 235.765625 C 153.488281 235.773438 153.902344 235.738281 154.3125 235.664062 C 154.722656 235.589844 155.125 235.476562 155.511719 235.324219 C 155.902344 235.167969 156.269531 234.980469 156.621094 234.753906 C 156.972656 234.527344 157.296875 234.269531 157.597656 233.980469 C 157.898438 233.691406 158.167969 233.375 158.40625 233.03125 C 158.644531 232.6875 158.847656 232.324219 159.015625 231.941406 C 159.179688 231.558594 159.308594 231.164062 159.398438 230.753906 C 159.488281 230.347656 159.535156 229.933594 159.542969 229.515625 C 159.550781 229.101562 159.515625 228.683594 159.441406 228.273438 C 159.367188 227.863281 159.253906 227.464844 159.101562 227.074219 C 158.949219 226.6875 158.761719 226.316406 158.535156 225.964844 C 158.308594 225.613281 158.050781 225.289062 157.761719 224.988281 C 157.472656 224.6875 157.15625 224.417969 156.8125 224.179688 C 156.46875 223.941406 156.105469 223.738281 155.722656 223.570312 C 155.339844 223.402344 154.945312 223.277344 154.539062 223.1875 C 154.128906 223.097656 153.714844 223.050781 153.300781 223.042969 C 149.789062 222.859375 146.308594 222.433594 142.859375 221.761719 C 139.410156 221.089844 136.023438 220.179688 132.703125 219.03125 C 129.382812 217.882812 126.160156 216.503906 123.03125 214.902344 C 119.90625 213.296875 116.90625 211.480469 114.035156 209.453125 C 113.65625 208.40625 113.042969 207.523438 112.191406 206.808594 C 111.707031 206.46875 111.1875 206.203125 110.625 206.019531 C 108.597656 203.707031 107.015625 201.125 105.882812 198.269531 C 104.746094 195.410156 104.121094 192.449219 104.011719 189.375 C 102.636719 158.625 118.820312 156.144531 119.40625 156.066406 C 119.664062 156.042969 119.921875 156.003906 120.179688 155.945312 C 120.433594 155.890625 120.683594 155.816406 120.929688 155.730469 C 121.175781 155.640625 121.417969 155.539062 121.652344 155.421875 C 121.886719 155.304688 122.109375 155.175781 122.328125 155.03125 C 122.546875 154.886719 122.753906 154.726562 122.953125 154.558594 C 123.152344 154.386719 123.339844 154.203125 123.515625 154.011719 C 123.691406 153.816406 123.851562 153.613281 124.003906 153.398438 C 124.15625 153.1875 124.292969 152.964844 124.414062 152.734375 C 124.539062 152.503906 124.648438 152.265625 124.742188 152.023438 C 124.835938 151.777344 124.914062 151.527344 124.976562 151.273438 C 125.039062 151.019531 125.085938 150.765625 125.121094 150.503906 C 125.152344 150.246094 125.167969 149.984375 125.167969 149.722656 C 125.167969 149.460938 125.148438 149.203125 125.117188 148.941406 C 125.085938 148.683594 125.035156 148.425781 124.972656 148.171875 C 124.90625 147.917969 124.828125 147.671875 124.734375 147.425781 C 124.636719 147.183594 124.527344 146.945312 124.40625 146.714844 C 123.308594 144.570312 122.429688 142.339844 121.769531 140.023438 C 121.113281 137.707031 120.6875 135.347656 120.496094 132.945312 C 120.300781 130.542969 120.34375 128.144531 120.625 125.753906 C 120.902344 123.359375 121.414062 121.015625 122.152344 118.726562 C 123.53125 116.183594 125.175781 113.828125 127.085938 111.65625 C 128.996094 109.484375 131.125 107.554688 133.472656 105.863281 C 135.816406 104.175781 138.324219 102.765625 140.988281 101.640625 C 143.648438 100.515625 146.40625 99.699219 149.253906 99.195312 C 151.132812 98.453125 153.050781 97.820312 155.003906 97.300781 C 156.960938 96.78125 158.9375 96.371094 160.9375 96.082031 C 162.9375 95.789062 164.949219 95.609375 166.96875 95.550781 C 168.992188 95.492188 171.007812 95.546875 173.023438 95.71875 C 175.039062 95.890625 177.039062 96.179688 179.019531 96.582031 C 181 96.988281 182.953125 97.503906 184.875 98.132812 C 186.796875 98.761719 188.675781 99.5 190.511719 100.34375 C 192.347656 101.191406 194.128906 102.136719 195.859375 103.191406 C 198.328125 105.128906 200.554688 107.3125 202.542969 109.742188 C 204.53125 112.171875 206.234375 114.785156 207.644531 117.589844 C 209.054688 120.394531 210.144531 123.316406 210.914062 126.363281 C 211.679688 129.40625 212.109375 132.496094 212.195312 135.632812 C 212.199219 136.054688 212.25 136.46875 212.339844 136.878906 C 212.429688 137.292969 212.558594 137.6875 212.730469 138.074219 C 212.902344 138.457031 213.109375 138.820312 213.351562 139.164062 C 213.597656 139.503906 213.871094 139.820312 214.179688 140.105469 C 214.488281 140.394531 214.820312 140.644531 215.179688 140.863281 C 215.539062 141.082031 215.917969 141.265625 216.3125 141.40625 C 216.707031 141.550781 217.113281 141.652344 217.53125 141.710938 C 217.945312 141.773438 218.363281 141.789062 218.785156 141.765625 C 219.203125 141.75 219.613281 141.695312 220.019531 141.597656 C 220.425781 141.5 220.820312 141.367188 221.199219 141.191406 C 221.578125 141.019531 221.9375 140.808594 222.273438 140.5625 C 222.613281 140.320312 222.925781 140.042969 223.207031 139.738281 C 223.492188 139.433594 223.746094 139.101562 223.964844 138.746094 C 224.183594 138.390625 224.363281 138.015625 224.511719 137.625 C 224.65625 137.234375 224.761719 136.832031 224.828125 136.421875 C 224.894531 136.007812 224.917969 135.59375 224.902344 135.175781 C 224.855469 133.128906 224.691406 131.089844 224.414062 129.058594 C 224.136719 127.027344 223.746094 125.019531 223.242188 123.035156 C 222.738281 121.046875 222.125 119.097656 221.402344 117.179688 C 220.675781 115.261719 219.847656 113.390625 218.917969 111.566406 C 217.984375 109.742188 216.949219 107.976562 215.820312 106.269531 C 214.6875 104.5625 213.464844 102.921875 212.148438 101.351562 C 210.832031 99.78125 209.433594 98.289062 207.949219 96.875 C 206.464844 95.460938 204.90625 94.136719 203.273438 92.898438 C 200.234375 90.851562 197.03125 89.109375 193.660156 87.671875 C 190.289062 86.234375 186.816406 85.128906 183.234375 84.355469 C 179.652344 83.582031 176.03125 83.152344 172.367188 83.066406 C 168.707031 82.980469 165.066406 83.242188 161.453125 83.851562 C 160.007812 81.109375 159.054688 78.203125 158.589844 75.136719 C 158.128906 72.070312 158.183594 69.011719 158.757812 65.960938 C 159.324219 64.148438 160.078125 62.414062 161.011719 60.761719 C 161.949219 59.109375 163.050781 57.574219 164.316406 56.152344 C 165.582031 54.734375 166.980469 53.464844 168.515625 52.347656 C 170.054688 51.226562 171.6875 50.28125 173.425781 49.511719 C 200.882812 34.421875 225.503906 61.039062 226.53125 62.234375 C 226.8125 62.546875 227.121094 62.824219 227.457031 63.074219 C 227.789062 63.324219 228.148438 63.539062 228.523438 63.71875 C 228.902344 63.898438 229.292969 64.039062 229.699219 64.144531 C 230.101562 64.246094 230.515625 64.308594 230.933594 64.328125 C 231.347656 64.351562 231.765625 64.332031 232.179688 64.273438 C 232.59375 64.210938 232.996094 64.113281 233.390625 63.972656 C 233.785156 63.832031 234.160156 63.65625 234.519531 63.441406 C 234.878906 63.230469 235.214844 62.980469 235.523438 62.703125 C 235.835938 62.421875 236.117188 62.113281 236.367188 61.78125 C 236.617188 61.445312 236.832031 61.089844 237.011719 60.710938 C 237.191406 60.335938 237.332031 59.945312 237.4375 59.539062 C 237.539062 59.132812 237.601562 58.722656 237.625 58.304688 C 237.644531 57.886719 237.625 57.472656 237.566406 57.058594 C 237.507812 56.644531 237.40625 56.238281 237.269531 55.847656 C 237.128906 55.453125 236.953125 55.074219 236.738281 54.714844 C 236.523438 54.355469 236.277344 54.019531 236 53.710938 C 231.46875 48.835938 226.339844 44.699219 220.617188 41.304688 C 214.894531 37.910156 208.808594 35.390625 202.359375 33.746094 C 207.410156 30.34375 212.738281 27.441406 218.339844 25.042969 C 223.9375 22.648438 229.714844 20.800781 235.667969 19.5 C 239.363281 18.9375 243.078125 18.71875 246.8125 18.847656 C 250.550781 18.972656 254.242188 19.4375 257.890625 20.246094 C 261.539062 21.054688 265.085938 22.191406 268.523438 23.652344 C 271.964844 25.117188 275.242188 26.882812 278.355469 28.953125 Z M 431.933594 362.128906 C 431.457031 362.128906 430.980469 362.085938 430.511719 361.992188 C 430.042969 361.898438 429.585938 361.761719 429.144531 361.578125 C 428.703125 361.398438 428.285156 361.171875 427.886719 360.910156 C 427.488281 360.644531 427.121094 360.34375 426.78125 360.003906 C 426.441406 359.667969 426.140625 359.296875 425.875 358.902344 C 425.609375 358.503906 425.382812 358.085938 425.199219 357.644531 C 425.015625 357.203125 424.878906 356.746094 424.785156 356.277344 C 424.691406 355.808594 424.644531 355.335938 424.644531 354.855469 C 424.644531 354.378906 424.6875 353.90625 424.78125 353.433594 C 424.875 352.964844 425.011719 352.511719 425.195312 352.070312 C 425.378906 351.628906 425.601562 351.207031 425.867188 350.808594 C 426.132812 350.410156 426.4375 350.042969 426.773438 349.707031 C 427.113281 349.367188 427.480469 349.066406 427.878906 348.800781 C 428.277344 348.535156 428.695312 348.308594 429.136719 348.128906 C 429.578125 347.945312 430.035156 347.808594 430.503906 347.714844 C 430.972656 347.621094 431.445312 347.574219 431.925781 347.574219 C 432.402344 347.574219 432.875 347.621094 433.347656 347.714844 C 433.816406 347.808594 434.269531 347.949219 434.710938 348.132812 C 435.152344 348.3125 435.574219 348.539062 435.96875 348.804688 C 436.367188 349.070312 436.734375 349.375 437.074219 349.710938 C 437.410156 350.050781 437.710938 350.417969 437.976562 350.816406 C 438.242188 351.214844 438.464844 351.636719 438.648438 352.078125 C 438.832031 352.519531 438.96875 352.972656 439.0625 353.445312 C 439.152344 353.914062 439.199219 354.386719 439.199219 354.863281 C 439.199219 355.339844 439.148438 355.8125 439.058594 356.28125 C 438.964844 356.75 438.824219 357.203125 438.640625 357.644531 C 438.460938 358.082031 438.234375 358.5 437.96875 358.898438 C 437.703125 359.292969 437.402344 359.660156 437.066406 360 C 436.730469 360.335938 436.363281 360.636719 435.964844 360.902344 C 435.570312 361.167969 435.152344 361.390625 434.710938 361.574219 C 434.269531 361.757812 433.816406 361.894531 433.351562 361.988281 C 432.882812 362.082031 432.410156 362.128906 431.933594 362.128906 Z M 431.933594 362.128906 " fill-opacity="1" fill-rule="nonzero"/></g></svg>