<svg xmlns="http://www.w3.org/2000/svg" xmlns:xlink="http://www.w3.org/1999/xlink" width="500" zoomAndPan="magnify" viewBox="0 0 375 374.999991" height="500" preserveAspectRatio="xMidYMid meet" version="1.0"><defs><clipPath id="3abaf85adf"><path d="M 251 42.5 L 325 42.5 L 325 116 L 251 116 Z M 251 42.5 " clip-rule="nonzero"/></clipPath><clipPath id="efbad01d8b"><path d="M 263.402344 52.34375 L 313.652344 52.34375 L 313.652344 106.34375 L 263.402344 106.34375 Z M 263.402344 52.34375 " clip-rule="nonzero"/></clipPath></defs><path fill="#333333" d="M 162.042969 91.734375 C 168.429688 91.734375 173.609375 96.921875 173.609375 103.300781 C 173.609375 109.675781 168.421875 114.855469 162.042969 114.855469 L 139.449219 114.855469 C 136.992188 114.855469 135.015625 116.84375 135.015625 119.289062 L 135.015625 141.902344 C 135.015625 148.277344 129.820312 153.464844 123.449219 153.464844 C 117.074219 153.464844 111.894531 148.269531 111.894531 141.902344 L 111.894531 119.296875 C 111.894531 116.851562 109.90625 114.863281 107.457031 114.863281 L 84.855469 114.863281 C 78.46875 114.863281 73.289062 109.675781 73.289062 103.308594 C 73.289062 96.921875 78.480469 91.742188 84.855469 91.742188 L 107.457031 91.742188 C 109.90625 91.742188 111.894531 89.753906 111.894531 87.308594 L 111.894531 64.707031 C 111.894531 61.519531 113.183594 58.632812 115.277344 56.53125 C 117.367188 54.441406 120.257812 53.148438 123.449219 53.148438 C 129.828125 53.148438 135.015625 58.335938 135.015625 64.707031 L 135.015625 87.308594 C 135.015625 89.753906 136.992188 91.742188 139.449219 91.742188 L 162.042969 91.742188 Z M 162.042969 91.734375 " fill-opacity="1" fill-rule="nonzero"/><path fill="#333333" d="M 74.929688 298.808594 L 80.09375 318.050781 L 36.925781 329.617188 L 0 191.800781 L 43.15625 180.234375 L 48.734375 201.023438 L 74.929688 298.796875 Z M 74.929688 298.808594 " fill-opacity="1" fill-rule="nonzero"/><path fill="#333333" d="M 372.484375 265.59375 C 375.027344 275.113281 369.359375 284.933594 359.84375 287.484375 L 235.289062 320.855469 C 235.152344 320.898438 235.003906 320.941406 234.863281 320.992188 C 234.5625 321.105469 204.324219 332.222656 172.308594 309.566406 C 170.867188 308.359375 161.28125 300.648438 145.730469 294.851562 C 131.285156 289.460938 108.847656 284.839844 82.347656 292.203125 L 58.238281 202.230469 C 118.503906 177.207031 154.929688 200.5625 200.820312 229.984375 C 211.023438 236.527344 221.582031 243.292969 232.886719 249.820312 C 241.695312 254.902344 245.71875 265.125 243.375 274.539062 C 243.375 274.546875 243.375 274.546875 243.375 274.554688 C 243.324219 274.703125 243.28125 274.859375 243.253906 275.015625 C 242.761719 276.8125 242.03125 278.589844 241.058594 280.28125 C 241.050781 280.292969 241.042969 280.300781 241.042969 280.308594 C 234.890625 290.9375 221.234375 294.589844 210.597656 288.449219 L 146.761719 251.589844 C 144.648438 250.367188 141.929688 251.09375 140.707031 253.210938 C 139.484375 255.339844 140.210938 258.046875 142.328125 259.269531 L 206.164062 296.125 C 211.058594 298.953125 216.402344 300.292969 221.695312 300.292969 C 232.46875 300.292969 242.96875 294.703125 248.730469 284.714844 C 248.738281 284.707031 248.746094 284.699219 248.757812 284.683594 C 249.703125 283.042969 250.472656 281.351562 251.097656 279.625 L 350.585938 252.960938 C 355.175781 251.726562 359.988281 252.378906 364.136719 254.765625 C 368.292969 257.160156 371.25 261.011719 372.484375 265.59375 Z M 372.484375 265.59375 " fill-opacity="1" fill-rule="nonzero"/><path fill="#333333" d="M 361.550781 194.820312 L 361.550781 210.351562 L 214.34375 210.351562 L 214.34375 194.820312 C 214.34375 168.207031 228.515625 144.0625 251.566406 130.898438 C 260.019531 142.371094 273.597656 149.34375 287.949219 149.34375 C 302.308594 149.34375 315.894531 142.371094 324.335938 130.898438 C 347.390625 144.0625 361.550781 168.207031 361.550781 194.820312 Z M 361.550781 194.820312 " fill-opacity="1" fill-rule="nonzero"/><g clip-path="url(#3abaf85adf)"><path fill="#333333" d="M 287.941406 42.683594 C 307.929688 42.683594 324.199219 58.945312 324.199219 78.933594 C 324.199219 98.925781 307.929688 115.195312 287.941406 115.195312 C 267.957031 115.195312 251.6875 98.925781 251.6875 78.933594 C 251.6875 58.945312 267.964844 42.683594 287.941406 42.683594 Z M 287.941406 42.683594 " fill-opacity="1" fill-rule="nonzero"/></g><g clip-path="url(#efbad01d8b)"><path fill="#333" d="M 313.476562 72.980469 C 313.476562 67.769531 309.914062 63.234375 304.921875 61.953125 C 304.058594 56.515625 299.351562 52.34375 293.679688 52.34375 C 291.855469 52.34375 290.070312 52.800781 288.460938 53.628906 C 286.890625 52.8125 285.113281 52.34375 283.222656 52.34375 C 277.550781 52.34375 272.84375 56.515625 271.980469 61.953125 C 266.988281 63.234375 263.425781 67.769531 263.425781 72.980469 C 263.425781 74.886719 263.910156 76.761719 264.832031 78.441406 C 263.910156 80.117188 263.425781 81.996094 263.425781 83.898438 C 263.425781 89.785156 267.910156 94.640625 273.644531 95.234375 C 273.863281 101.324219 278.875 106.214844 285.019531 106.214844 C 286.515625 106.214844 287.96875 105.921875 289.339844 105.359375 C 290.710938 105.921875 292.183594 106.214844 293.679688 106.214844 C 299.941406 106.214844 305.039062 101.136719 305.074219 94.882812 C 309.90625 93.5625 313.476562 89.144531 313.476562 83.898438 C 313.476562 81.996094 312.992188 80.117188 312.070312 78.441406 C 312.992188 76.761719 313.476562 74.886719 313.476562 72.980469 Z M 310.265625 78.90625 C 311.191406 80.417969 311.679688 82.144531 311.679688 83.898438 C 311.679688 89.195312 307.371094 93.5 302.078125 93.5 C 301.582031 93.5 301.179688 93.902344 301.179688 94.398438 C 301.179688 94.894531 301.582031 95.296875 302.078125 95.296875 C 302.476562 95.296875 302.871094 95.273438 303.257812 95.234375 C 303.039062 100.335938 298.832031 104.417969 293.679688 104.417969 C 291.996094 104.417969 290.34375 103.976562 288.894531 103.144531 C 288.464844 102.898438 287.917969 103.046875 287.667969 103.472656 C 287.5625 103.660156 287.539062 103.867188 287.574219 104.066406 C 286.746094 104.292969 285.894531 104.417969 285.019531 104.417969 C 279.804688 104.417969 275.554688 100.238281 275.429688 95.054688 C 275.605469 94.890625 275.722656 94.660156 275.722656 94.398438 C 275.722656 93.902344 275.320312 93.5 274.824219 93.5 C 269.53125 93.5 265.222656 89.195312 265.222656 83.898438 C 265.222656 82.144531 265.710938 80.417969 266.636719 78.90625 L 266.921875 78.441406 L 266.636719 77.972656 C 265.710938 76.460938 265.222656 74.734375 265.222656 72.980469 C 265.222656 68.796875 267.945312 65.136719 271.835938 63.863281 C 271.855469 65.742188 272.332031 67.597656 273.234375 69.234375 C 273.398438 69.53125 273.707031 69.699219 274.023438 69.699219 C 274.167969 69.699219 274.316406 69.664062 274.457031 69.585938 C 274.890625 69.347656 275.046875 68.800781 274.808594 68.367188 C 274.03125 66.960938 273.621094 65.359375 273.621094 63.742188 C 273.621094 58.445312 277.929688 54.140625 283.222656 54.140625 C 288.515625 54.140625 292.824219 58.445312 292.824219 63.742188 C 292.824219 64.238281 293.226562 64.636719 293.722656 64.636719 C 294.21875 64.636719 294.621094 64.238281 294.621094 63.742188 C 294.621094 60.109375 292.90625 56.875 290.25 54.785156 C 291.339844 54.367188 292.5 54.140625 293.679688 54.140625 C 298.972656 54.140625 303.28125 58.445312 303.28125 63.742188 C 303.28125 65.359375 302.871094 66.960938 302.09375 68.367188 C 301.855469 68.800781 302.011719 69.347656 302.449219 69.585938 C 302.585938 69.664062 302.734375 69.699219 302.878906 69.699219 C 303.195312 69.699219 303.503906 69.53125 303.667969 69.234375 C 304.570312 67.597656 305.046875 65.742188 305.070312 63.863281 C 308.957031 65.136719 311.679688 68.796875 311.679688 72.980469 C 311.679688 74.734375 311.191406 76.460938 310.265625 77.972656 L 309.980469 78.441406 Z M 289.347656 60.425781 L 289.347656 99.03125 C 289.347656 99.527344 288.945312 99.929688 288.449219 99.929688 C 287.957031 99.929688 287.554688 99.527344 287.554688 99.03125 L 287.554688 60.425781 C 287.554688 59.929688 287.957031 59.527344 288.449219 59.527344 C 288.945312 59.527344 289.347656 59.929688 289.347656 60.425781 Z M 276.777344 75.6875 C 276.777344 72.222656 279.597656 69.402344 283.0625 69.402344 C 283.558594 69.402344 283.960938 69.804688 283.960938 70.300781 C 283.960938 70.796875 283.558594 71.199219 283.0625 71.199219 C 280.589844 71.199219 278.574219 73.214844 278.574219 75.6875 C 278.574219 76.183594 278.171875 76.585938 277.675781 76.585938 C 277.179688 76.585938 276.777344 76.183594 276.777344 75.6875 Z M 303.453125 77.527344 C 305.902344 79.980469 305.902344 83.964844 303.453125 86.417969 C 303.277344 86.59375 303.046875 86.679688 302.816406 86.679688 C 302.585938 86.679688 302.355469 86.59375 302.183594 86.417969 C 301.832031 86.066406 301.832031 85.496094 302.183594 85.148438 C 303.933594 83.398438 303.933594 80.550781 302.183594 78.796875 C 301.832031 78.449219 301.832031 77.878906 302.183594 77.527344 C 302.53125 77.179688 303.101562 77.179688 303.453125 77.527344 Z M 285.710938 90.316406 C 286.0625 90.667969 286.0625 91.234375 285.710938 91.585938 C 284.488281 92.8125 282.878906 93.425781 281.269531 93.425781 C 279.660156 93.425781 278.050781 92.8125 276.824219 91.585938 C 276.472656 91.234375 276.472656 90.667969 276.824219 90.316406 C 277.175781 89.964844 277.742188 89.964844 278.09375 90.316406 C 279.84375 92.066406 282.691406 92.066406 284.441406 90.316406 C 284.792969 89.964844 285.363281 89.964844 285.710938 90.316406 Z M 285.710938 90.316406 " fill-opacity="1" fill-rule="nonzero"/></g></svg>