<svg xmlns="http://www.w3.org/2000/svg" xmlns:xlink="http://www.w3.org/1999/xlink" width="500" zoomAndPan="magnify" viewBox="0 0 375 374.999991" height="500" preserveAspectRatio="xMidYMid meet" version="1.0"><defs><clipPath id="b56a7c60fd"><path d="M 23.140625 181 L 94 181 L 94 313 L 23.140625 313 Z M 23.140625 181 " clip-rule="nonzero"/></clipPath><clipPath id="2e5203571d"><path d="M 243 60.394531 L 308 60.394531 L 308 125 L 243 125 Z M 243 60.394531 " clip-rule="nonzero"/></clipPath><clipPath id="999e690ef9"><path d="M 254.09375 67.769531 L 297.59375 67.769531 L 297.59375 115 L 254.09375 115 Z M 254.09375 67.769531 " clip-rule="nonzero"/></clipPath></defs><path fill="#333333" d="M 165.179688 103.554688 C 170.777344 103.554688 175.316406 108.101562 175.316406 113.691406 C 175.316406 119.28125 170.769531 123.824219 165.179688 123.824219 L 145.375 123.824219 C 143.222656 123.824219 141.488281 125.5625 141.488281 127.707031 L 141.488281 147.527344 C 141.488281 153.117188 136.933594 157.667969 131.351562 157.667969 C 125.761719 157.667969 121.21875 153.113281 121.21875 147.527344 L 121.21875 127.714844 C 121.21875 125.570312 119.480469 123.832031 117.332031 123.832031 L 97.519531 123.832031 C 91.921875 123.832031 87.382812 119.28125 87.382812 113.699219 C 87.382812 108.101562 91.929688 103.5625 97.519531 103.5625 L 117.332031 103.5625 C 119.480469 103.5625 121.21875 101.820312 121.21875 99.675781 L 121.21875 79.863281 C 121.21875 77.070312 122.351562 74.539062 124.1875 72.699219 C 126.019531 70.863281 128.550781 69.730469 131.351562 69.730469 C 136.941406 69.730469 141.488281 74.28125 141.488281 79.863281 L 141.488281 99.675781 C 141.488281 101.820312 143.222656 103.5625 145.375 103.5625 L 165.179688 103.5625 Z M 165.179688 103.554688 " fill-opacity="1" fill-rule="nonzero"/><g clip-path="url(#b56a7c60fd)"><path fill="#333333" d="M 88.820312 285.066406 L 93.347656 301.9375 L 55.507812 312.074219 L 23.140625 191.269531 L 60.96875 181.128906 L 65.859375 199.351562 L 88.820312 285.058594 Z M 88.820312 285.066406 " fill-opacity="1" fill-rule="nonzero"/></g><path fill="#333333" d="M 349.644531 255.953125 C 351.871094 264.296875 346.90625 272.90625 338.5625 275.140625 L 229.386719 304.394531 C 229.265625 304.429688 229.136719 304.46875 229.011719 304.515625 C 228.746094 304.613281 202.242188 314.355469 174.175781 294.5 C 172.914062 293.441406 164.511719 286.679688 150.882812 281.597656 C 138.21875 276.875 118.550781 272.824219 95.324219 279.28125 L 74.1875 200.410156 C 127.015625 178.476562 158.945312 198.949219 199.167969 224.742188 C 208.113281 230.476562 217.371094 236.40625 227.277344 242.125 C 235 246.582031 238.527344 255.542969 236.472656 263.792969 C 236.472656 263.800781 236.472656 263.800781 236.472656 263.808594 C 236.429688 263.9375 236.390625 264.074219 236.367188 264.214844 C 235.933594 265.789062 235.296875 267.347656 234.445312 268.828125 C 234.4375 268.835938 234.429688 268.84375 234.429688 268.851562 C 229.035156 278.167969 217.066406 281.371094 207.742188 275.984375 L 151.785156 243.679688 C 149.929688 242.605469 147.550781 243.246094 146.476562 245.101562 C 145.40625 246.964844 146.042969 249.335938 147.902344 250.410156 L 203.855469 282.71875 C 208.144531 285.195312 212.828125 286.367188 217.46875 286.367188 C 226.914062 286.367188 236.117188 281.46875 241.167969 272.714844 C 241.175781 272.707031 241.183594 272.699219 241.191406 272.683594 C 242.019531 271.246094 242.695312 269.765625 243.242188 268.25 L 330.449219 244.878906 C 334.472656 243.800781 338.691406 244.371094 342.328125 246.460938 C 345.972656 248.5625 348.566406 251.9375 349.644531 255.953125 Z M 349.644531 255.953125 " fill-opacity="1" fill-rule="nonzero"/><path fill="#333333" d="M 340.0625 193.914062 L 340.0625 207.527344 L 211.027344 207.527344 L 211.027344 193.914062 C 211.027344 170.589844 223.445312 149.421875 243.652344 137.886719 C 251.0625 147.941406 262.964844 154.054688 275.542969 154.054688 C 288.132812 154.054688 300.042969 147.941406 307.441406 137.886719 C 327.648438 149.421875 340.0625 170.589844 340.0625 193.914062 Z M 340.0625 193.914062 " fill-opacity="1" fill-rule="nonzero"/><g clip-path="url(#2e5203571d)"><path fill="#333333" d="M 275.535156 60.558594 C 293.058594 60.558594 307.320312 74.8125 307.320312 92.335938 C 307.320312 109.859375 293.058594 124.117188 275.535156 124.117188 C 258.019531 124.117188 243.761719 109.859375 243.761719 92.335938 C 243.761719 74.8125 258.027344 60.558594 275.535156 60.558594 Z M 275.535156 60.558594 " fill-opacity="1" fill-rule="nonzero"/></g><g clip-path="url(#999e690ef9)"><path fill="#248975" d="M 297.664062 85.726562 C 297.664062 81.191406 294.566406 77.246094 290.222656 76.128906 C 289.472656 71.398438 285.378906 67.769531 280.441406 67.769531 C 278.855469 67.769531 277.300781 68.167969 275.902344 68.890625 C 274.535156 68.179688 272.984375 67.769531 271.34375 67.769531 C 266.40625 67.769531 262.3125 71.398438 261.558594 76.128906 C 257.21875 77.246094 254.117188 81.191406 254.117188 85.726562 C 254.117188 87.382812 254.539062 89.015625 255.339844 90.476562 C 254.539062 91.9375 254.117188 93.570312 254.117188 95.226562 C 254.117188 100.347656 258.019531 104.574219 263.007812 105.089844 C 263.199219 110.390625 267.558594 114.644531 272.90625 114.644531 C 274.207031 114.644531 275.472656 114.390625 276.664062 113.898438 C 277.855469 114.390625 279.140625 114.644531 280.441406 114.644531 C 285.890625 114.644531 290.324219 110.226562 290.355469 104.785156 C 294.558594 103.636719 297.664062 99.792969 297.664062 95.226562 C 297.664062 93.570312 297.246094 91.9375 296.441406 90.476562 C 297.246094 89.015625 297.664062 87.382812 297.664062 85.726562 Z M 294.875 90.882812 C 295.679688 92.199219 296.101562 93.699219 296.101562 95.226562 C 296.101562 99.832031 292.355469 103.582031 287.75 103.582031 C 287.316406 103.582031 286.96875 103.929688 286.96875 104.363281 C 286.96875 104.792969 287.316406 105.144531 287.75 105.144531 C 288.097656 105.144531 288.4375 105.125 288.777344 105.089844 C 288.585938 109.527344 284.925781 113.082031 280.441406 113.082031 C 278.976562 113.082031 277.535156 112.699219 276.277344 111.972656 C 275.902344 111.757812 275.425781 111.886719 275.210938 112.257812 C 275.117188 112.421875 275.097656 112.601562 275.128906 112.773438 C 274.40625 112.972656 273.664062 113.082031 272.90625 113.082031 C 268.367188 113.082031 264.671875 109.445312 264.5625 104.933594 C 264.714844 104.789062 264.816406 104.589844 264.816406 104.363281 C 264.816406 103.929688 264.464844 103.582031 264.035156 103.582031 C 259.425781 103.582031 255.679688 99.832031 255.679688 95.226562 C 255.679688 93.699219 256.105469 92.199219 256.90625 90.882812 L 257.15625 90.476562 L 256.90625 90.070312 C 256.105469 88.753906 255.679688 87.25 255.679688 85.726562 C 255.679688 82.085938 258.046875 78.902344 261.433594 77.792969 C 261.449219 79.425781 261.867188 81.042969 262.652344 82.46875 C 262.792969 82.726562 263.0625 82.871094 263.335938 82.871094 C 263.464844 82.871094 263.59375 82.839844 263.710938 82.773438 C 264.089844 82.566406 264.230469 82.089844 264.019531 81.710938 C 263.34375 80.488281 262.988281 79.09375 262.988281 77.6875 C 262.988281 73.078125 266.734375 69.332031 271.34375 69.332031 C 275.949219 69.332031 279.695312 73.078125 279.695312 77.6875 C 279.695312 78.117188 280.046875 78.46875 280.476562 78.46875 C 280.910156 78.46875 281.257812 78.117188 281.257812 77.6875 C 281.257812 74.523438 279.765625 71.710938 277.457031 69.894531 C 278.402344 69.53125 279.414062 69.332031 280.441406 69.332031 C 285.046875 69.332031 288.792969 73.078125 288.792969 77.6875 C 288.792969 79.09375 288.4375 80.488281 287.761719 81.710938 C 287.554688 82.089844 287.691406 82.566406 288.070312 82.773438 C 288.191406 82.839844 288.320312 82.871094 288.445312 82.871094 C 288.722656 82.871094 288.988281 82.726562 289.132812 82.464844 C 289.917969 81.042969 290.332031 79.425781 290.351562 77.792969 C 293.734375 78.902344 296.101562 82.085938 296.101562 85.726562 C 296.101562 87.25 295.679688 88.753906 294.875 90.070312 L 294.625 90.476562 Z M 276.671875 74.800781 L 276.671875 108.394531 C 276.671875 108.828125 276.324219 109.175781 275.890625 109.175781 C 275.460938 109.175781 275.109375 108.828125 275.109375 108.394531 L 275.109375 74.800781 C 275.109375 74.371094 275.460938 74.019531 275.890625 74.019531 C 276.324219 74.019531 276.671875 74.371094 276.671875 74.800781 Z M 265.734375 88.082031 C 265.734375 85.066406 268.1875 82.613281 271.203125 82.613281 C 271.636719 82.613281 271.984375 82.964844 271.984375 83.394531 C 271.984375 83.824219 271.636719 84.175781 271.203125 84.175781 C 269.050781 84.175781 267.296875 85.929688 267.296875 88.082031 C 267.296875 88.511719 266.949219 88.863281 266.515625 88.863281 C 266.085938 88.863281 265.734375 88.511719 265.734375 88.082031 Z M 288.945312 89.683594 C 291.074219 91.816406 291.074219 95.285156 288.945312 97.417969 C 288.792969 97.570312 288.589844 97.644531 288.390625 97.644531 C 288.191406 97.644531 287.992188 97.570312 287.839844 97.417969 C 287.535156 97.113281 287.535156 96.617188 287.839844 96.3125 C 289.363281 94.789062 289.363281 92.3125 287.839844 90.789062 C 287.535156 90.484375 287.535156 89.988281 287.839844 89.683594 C 288.144531 89.378906 288.636719 89.378906 288.945312 89.683594 Z M 273.507812 100.8125 C 273.8125 101.117188 273.8125 101.609375 273.507812 101.914062 C 272.441406 102.980469 271.042969 103.515625 269.640625 103.515625 C 268.242188 103.515625 266.839844 102.980469 265.773438 101.914062 C 265.46875 101.609375 265.46875 101.117188 265.773438 100.8125 C 266.078125 100.503906 266.574219 100.503906 266.878906 100.8125 C 268.402344 102.332031 270.878906 102.332031 272.402344 100.8125 C 272.707031 100.503906 273.203125 100.503906 273.507812 100.8125 Z M 273.507812 100.8125 " fill-opacity="1" fill-rule="nonzero"/></g></svg>