<svg xmlns="http://www.w3.org/2000/svg" xmlns:xlink="http://www.w3.org/1999/xlink" width="500" zoomAndPan="magnify" viewBox="0 0 375 374.999991" height="500" preserveAspectRatio="xMidYMid meet" version="1.0"><defs><clipPath id="6797fc371c"><path d="M 10.078125 11.046875 L 363 11.046875 L 363 364 L 10.078125 364 Z M 10.078125 11.046875 " clip-rule="nonzero"/></clipPath></defs><path fill="#248975" d="M 186.808594 329.882812 L 144.992188 329.882812 C 144.488281 329.882812 144.007812 329.789062 143.542969 329.597656 C 143.082031 329.40625 142.671875 329.132812 142.320312 328.777344 C 141.964844 328.421875 141.691406 328.015625 141.5 327.550781 C 141.308594 327.089844 141.210938 326.605469 141.210938 326.105469 L 141.210938 296.109375 L 111.214844 296.109375 C 110.714844 296.109375 110.230469 296.011719 109.769531 295.820312 C 109.304688 295.628906 108.898438 295.355469 108.542969 295.003906 C 108.1875 294.648438 107.914062 294.238281 107.722656 293.777344 C 107.53125 293.3125 107.433594 292.832031 107.433594 292.332031 L 107.433594 250.511719 C 107.433594 250.011719 107.53125 249.527344 107.722656 249.066406 C 107.914062 248.601562 108.1875 248.191406 108.542969 247.839844 C 108.894531 247.484375 109.304688 247.210938 109.769531 247.019531 C 110.230469 246.828125 110.714844 246.730469 111.214844 246.730469 L 141.210938 246.730469 L 141.210938 216.734375 C 141.210938 216.234375 141.308594 215.75 141.5 215.289062 C 141.691406 214.824219 141.964844 214.417969 142.316406 214.0625 C 142.671875 213.707031 143.082031 213.433594 143.542969 213.242188 C 144.007812 213.050781 144.488281 212.957031 144.992188 212.957031 L 186.808594 212.957031 C 187.308594 212.957031 187.792969 213.050781 188.253906 213.242188 C 188.71875 213.433594 189.125 213.707031 189.480469 214.0625 C 189.835938 214.417969 190.109375 214.824219 190.300781 215.289062 C 190.492188 215.75 190.585938 216.234375 190.585938 216.734375 L 190.585938 246.730469 L 220.585938 246.730469 C 221.085938 246.730469 221.566406 246.828125 222.03125 247.019531 C 222.492188 247.210938 222.902344 247.484375 223.257812 247.839844 C 223.613281 248.191406 223.882812 248.601562 224.074219 249.066406 C 224.269531 249.527344 224.363281 250.011719 224.363281 250.511719 L 224.363281 292.332031 C 224.363281 292.832031 224.269531 293.3125 224.074219 293.777344 C 223.882812 294.238281 223.609375 294.648438 223.257812 295.003906 C 222.902344 295.355469 222.492188 295.628906 222.03125 295.820312 C 221.566406 296.011719 221.085938 296.109375 220.585938 296.109375 L 190.585938 296.109375 L 190.585938 326.105469 C 190.585938 326.605469 190.492188 327.089844 190.300781 327.550781 C 190.109375 328.015625 189.835938 328.421875 189.480469 328.777344 C 189.125 329.132812 188.71875 329.40625 188.253906 329.597656 C 187.792969 329.789062 187.308594 329.882812 186.808594 329.882812 Z M 148.769531 322.328125 L 183.03125 322.328125 L 183.03125 292.332031 C 183.03125 291.828125 183.125 291.347656 183.316406 290.882812 C 183.507812 290.421875 183.78125 290.011719 184.136719 289.660156 C 184.492188 289.304688 184.898438 289.03125 185.363281 288.839844 C 185.824219 288.648438 186.308594 288.550781 186.808594 288.550781 L 216.804688 288.550781 L 216.804688 254.289062 L 186.808594 254.289062 C 186.308594 254.289062 185.824219 254.195312 185.363281 254.003906 C 184.898438 253.808594 184.492188 253.539062 184.136719 253.183594 C 183.78125 252.828125 183.507812 252.421875 183.316406 251.957031 C 183.125 251.492188 183.03125 251.011719 183.03125 250.511719 L 183.03125 220.511719 L 148.769531 220.511719 L 148.769531 250.511719 C 148.769531 251.011719 148.671875 251.492188 148.480469 251.957031 C 148.289062 252.421875 148.015625 252.828125 147.664062 253.183594 C 147.308594 253.539062 146.898438 253.808594 146.4375 254.003906 C 145.972656 254.195312 145.492188 254.289062 144.992188 254.289062 L 114.992188 254.289062 L 114.992188 288.550781 L 144.992188 288.550781 C 145.492188 288.550781 145.972656 288.648438 146.4375 288.839844 C 146.898438 289.03125 147.308594 289.304688 147.664062 289.660156 C 148.015625 290.011719 148.289062 290.421875 148.480469 290.882812 C 148.671875 291.347656 148.769531 291.828125 148.769531 292.332031 Z M 148.769531 322.328125 " fill-opacity="1" fill-rule="nonzero"/><g clip-path="url(#6797fc371c)"><path fill="#333333" d="M 361.484375 188.316406 C 364.886719 171.976562 360.652344 162.515625 356.503906 157.453125 C 351.515625 151.375 343.695312 148.046875 334.691406 148.144531 L 294.964844 148.144531 L 294.964844 40.402344 C 294.964844 39.898438 294.871094 39.417969 294.679688 38.953125 C 294.484375 38.492188 294.214844 38.082031 293.859375 37.730469 C 293.503906 37.375 293.097656 37.101562 292.632812 36.910156 C 292.167969 36.71875 291.6875 36.621094 291.1875 36.621094 L 265.53125 36.621094 L 265.53125 14.917969 C 265.53125 14.417969 265.433594 13.933594 265.242188 13.472656 C 265.050781 13.007812 264.777344 12.601562 264.425781 12.246094 C 264.070312 11.890625 263.660156 11.617188 263.199219 11.425781 C 262.734375 11.234375 262.253906 11.140625 261.753906 11.140625 L 67.078125 11.140625 C 66.578125 11.140625 66.097656 11.234375 65.632812 11.425781 C 65.171875 11.617188 64.761719 11.890625 64.40625 12.246094 C 64.054688 12.601562 63.78125 13.007812 63.589844 13.472656 C 63.398438 13.933594 63.300781 14.417969 63.300781 14.917969 L 63.300781 159.5625 L 30.667969 159.5625 C 19.316406 159.5625 10.078125 168.550781 10.078125 179.597656 L 10.078125 343.546875 C 10.078125 354.707031 19.410156 363.785156 30.878906 363.785156 L 296.480469 363.785156 C 297.511719 363.789062 298.539062 363.71875 299.558594 363.574219 C 300.582031 363.425781 301.585938 363.207031 302.574219 362.910156 C 303.5625 362.613281 304.523438 362.246094 305.457031 361.808594 C 306.390625 361.371094 307.285156 360.867188 308.144531 360.292969 C 309.003906 359.722656 309.8125 359.089844 310.578125 358.398438 C 311.34375 357.707031 312.050781 356.960938 312.707031 356.164062 C 313.359375 355.367188 313.953125 354.523438 314.480469 353.636719 C 315.007812 352.753906 315.46875 351.832031 315.863281 350.878906 C 315.972656 350.679688 316.054688 350.472656 316.101562 350.25 C 316.433594 349.332031 316.695312 348.398438 316.890625 347.441406 Z M 334.722656 155.703125 C 339.539062 155.664062 346.164062 156.765625 350.65625 162.246094 C 355.109375 167.675781 356.296875 176.160156 354.144531 186.542969 L 317.28125 319.980469 L 317.28125 202.449219 C 317.28125 191.292969 307.949219 182.214844 296.480469 182.214844 L 294.964844 182.214844 L 294.964844 155.703125 Z M 287.40625 44.179688 L 287.40625 182.214844 L 265.53125 182.214844 L 265.53125 44.179688 Z M 70.859375 18.695312 L 257.972656 18.695312 L 257.972656 182.214844 L 103.523438 182.214844 L 96.269531 169.011719 C 95.464844 167.570312 94.484375 166.261719 93.328125 165.085938 C 92.175781 163.90625 90.886719 162.902344 89.460938 162.070312 C 88.035156 161.242188 86.527344 160.613281 84.933594 160.1875 C 83.339844 159.761719 81.71875 159.554688 80.070312 159.5625 L 70.859375 159.5625 Z M 309.722656 343.546875 C 309.722656 350.539062 303.78125 356.226562 296.480469 356.226562 L 30.878906 356.226562 C 23.578125 356.226562 17.636719 350.539062 17.636719 343.546875 L 17.636719 179.597656 C 17.636719 172.71875 23.484375 167.121094 30.667969 167.121094 L 80.070312 167.121094 C 81.042969 167.109375 82 167.230469 82.9375 167.476562 C 83.878906 167.722656 84.769531 168.089844 85.613281 168.578125 C 86.457031 169.0625 87.21875 169.652344 87.902344 170.34375 C 88.585938 171.035156 89.167969 171.804688 89.644531 172.652344 L 97.980469 187.8125 C 98.3125 188.417969 98.773438 188.894531 99.367188 189.246094 C 99.960938 189.597656 100.601562 189.769531 101.289062 189.769531 L 296.480469 189.769531 C 303.78125 189.769531 309.722656 195.460938 309.722656 202.449219 Z M 163.113281 116.046875 L 236.847656 116.046875 C 237.351562 116.046875 237.832031 115.953125 238.292969 115.761719 C 238.757812 115.570312 239.167969 115.296875 239.519531 114.941406 C 239.875 114.585938 240.148438 114.179688 240.339844 113.714844 C 240.53125 113.253906 240.628906 112.769531 240.628906 112.269531 L 240.628906 38.535156 C 240.628906 38.03125 240.53125 37.550781 240.339844 37.085938 C 240.148438 36.625 239.875 36.214844 239.519531 35.863281 C 239.167969 35.507812 238.757812 35.234375 238.292969 35.042969 C 237.832031 34.851562 237.351562 34.753906 236.847656 34.753906 L 163.113281 34.753906 C 162.613281 34.753906 162.128906 34.851562 161.667969 35.042969 C 161.203125 35.234375 160.796875 35.507812 160.441406 35.863281 C 160.085938 36.214844 159.8125 36.625 159.621094 37.085938 C 159.429688 37.550781 159.332031 38.03125 159.335938 38.535156 L 159.335938 112.269531 C 159.332031 112.769531 159.429688 113.253906 159.621094 113.714844 C 159.8125 114.179688 160.085938 114.585938 160.441406 114.941406 C 160.796875 115.296875 161.203125 115.570312 161.667969 115.761719 C 162.128906 115.953125 162.613281 116.046875 163.113281 116.046875 Z M 182.054688 108.492188 L 182.054688 104.289062 C 182.066406 102.722656 182.289062 101.183594 182.722656 99.679688 C 183.152344 98.171875 183.78125 96.753906 184.601562 95.417969 C 185.421875 94.082031 186.40625 92.882812 187.554688 91.820312 C 188.703125 90.753906 189.972656 89.859375 191.363281 89.144531 C 191.640625 88.996094 191.894531 88.820312 192.128906 88.609375 C 192.359375 88.398438 192.566406 88.164062 192.738281 87.90625 C 192.914062 87.644531 193.050781 87.367188 193.15625 87.074219 C 193.261719 86.777344 193.328125 86.472656 193.359375 86.164062 C 193.390625 85.851562 193.378906 85.539062 193.332031 85.230469 C 193.285156 84.921875 193.203125 84.625 193.078125 84.335938 C 192.957031 84.046875 192.800781 83.777344 192.613281 83.527344 C 192.425781 83.277344 192.210938 83.054688 191.964844 82.859375 C 191.09375 82.144531 190.3125 81.339844 189.621094 80.449219 C 188.929688 79.558594 188.347656 78.601562 187.871094 77.578125 C 187.394531 76.554688 187.039062 75.492188 186.804688 74.386719 C 186.570312 73.285156 186.457031 72.167969 186.472656 71.042969 C 186.472656 62.945312 192.535156 56.355469 199.980469 56.355469 C 207.429688 56.355469 213.488281 62.945312 213.488281 71.042969 C 213.503906 72.167969 213.394531 73.285156 213.15625 74.386719 C 212.921875 75.492188 212.566406 76.554688 212.089844 77.578125 C 211.617188 78.601562 211.03125 79.558594 210.339844 80.449219 C 209.652344 81.339844 208.867188 82.144531 207.996094 82.859375 C 207.753906 83.054688 207.535156 83.277344 207.347656 83.527344 C 207.160156 83.777344 207.003906 84.046875 206.882812 84.335938 C 206.761719 84.625 206.675781 84.921875 206.628906 85.230469 C 206.582031 85.542969 206.570312 85.851562 206.601562 86.164062 C 206.632812 86.476562 206.699219 86.777344 206.804688 87.074219 C 206.910156 87.367188 207.050781 87.644531 207.222656 87.90625 C 207.398438 88.167969 207.601562 88.402344 207.832031 88.609375 C 208.066406 88.820312 208.320312 89 208.597656 89.144531 C 209.988281 89.863281 211.257812 90.753906 212.410156 91.820312 C 213.558594 92.882812 214.542969 94.085938 215.363281 95.417969 C 216.183594 96.753906 216.808594 98.171875 217.242188 99.679688 C 217.671875 101.183594 217.894531 102.722656 217.90625 104.289062 L 217.90625 108.492188 Z M 166.890625 42.3125 L 233.070312 42.3125 L 233.070312 108.492188 L 225.464844 108.492188 L 225.464844 104.289062 C 225.460938 102.453125 225.253906 100.640625 224.839844 98.851562 C 224.429688 97.0625 223.824219 95.34375 223.027344 93.6875 C 222.230469 92.035156 221.261719 90.492188 220.117188 89.054688 C 218.976562 87.621094 217.6875 86.328125 216.253906 85.179688 C 217.820312 83.160156 219.015625 80.9375 219.835938 78.515625 C 220.660156 76.089844 221.0625 73.601562 221.042969 71.042969 C 221.042969 58.777344 211.59375 48.796875 199.980469 48.796875 C 188.367188 48.796875 178.917969 58.777344 178.917969 71.042969 C 178.898438 73.601562 179.300781 76.089844 180.125 78.515625 C 180.945312 80.9375 182.140625 83.160156 183.707031 85.179688 C 182.273438 86.328125 180.988281 87.621094 179.84375 89.054688 C 178.699219 90.492188 177.730469 92.035156 176.933594 93.6875 C 176.136719 95.34375 175.53125 97.0625 175.121094 98.851562 C 174.710938 100.640625 174.503906 102.453125 174.496094 104.289062 L 174.496094 108.492188 L 166.890625 108.492188 Z M 90.679688 63.890625 L 142.230469 63.890625 C 142.730469 63.890625 143.214844 63.796875 143.675781 63.605469 C 144.140625 63.414062 144.546875 63.140625 144.902344 62.785156 C 145.257812 62.429688 145.53125 62.023438 145.722656 61.558594 C 145.914062 61.097656 146.007812 60.613281 146.007812 60.113281 L 146.007812 38.535156 C 146.007812 38.03125 145.914062 37.550781 145.722656 37.085938 C 145.53125 36.625 145.257812 36.214844 144.902344 35.863281 C 144.546875 35.507812 144.140625 35.234375 143.675781 35.042969 C 143.214844 34.851562 142.730469 34.753906 142.230469 34.753906 L 90.679688 34.753906 C 90.179688 34.753906 89.695312 34.851562 89.234375 35.042969 C 88.769531 35.234375 88.363281 35.507812 88.007812 35.863281 C 87.652344 36.214844 87.378906 36.625 87.1875 37.085938 C 86.996094 37.550781 86.902344 38.03125 86.902344 38.535156 L 86.902344 60.113281 C 86.902344 60.613281 86.996094 61.097656 87.1875 61.558594 C 87.378906 62.023438 87.652344 62.429688 88.007812 62.785156 C 88.363281 63.140625 88.769531 63.414062 89.234375 63.605469 C 89.695312 63.796875 90.179688 63.890625 90.679688 63.890625 Z M 94.457031 42.3125 L 138.453125 42.3125 L 138.453125 56.335938 L 94.457031 56.335938 Z M 86.902344 82.421875 C 86.902344 81.921875 86.996094 81.441406 87.1875 80.976562 C 87.378906 80.515625 87.652344 80.105469 88.007812 79.75 C 88.363281 79.398438 88.769531 79.125 89.234375 78.933594 C 89.695312 78.738281 90.179688 78.644531 90.679688 78.644531 L 140.015625 78.644531 C 140.515625 78.644531 141 78.742188 141.460938 78.933594 C 141.925781 79.125 142.332031 79.398438 142.6875 79.75 C 143.042969 80.105469 143.316406 80.515625 143.507812 80.976562 C 143.699219 81.441406 143.792969 81.921875 143.792969 82.421875 C 143.792969 82.925781 143.699219 83.40625 143.507812 83.871094 C 143.316406 84.332031 143.042969 84.742188 142.6875 85.09375 C 142.332031 85.449219 141.925781 85.722656 141.460938 85.914062 C 141 86.105469 140.515625 86.203125 140.015625 86.203125 L 90.679688 86.203125 C 90.179688 86.203125 89.695312 86.105469 89.234375 85.914062 C 88.769531 85.722656 88.363281 85.449219 88.007812 85.09375 C 87.652344 84.742188 87.378906 84.332031 87.1875 83.871094 C 86.996094 83.40625 86.902344 82.925781 86.902344 82.421875 Z M 86.902344 100.183594 C 86.902344 99.683594 86.996094 99.203125 87.1875 98.738281 C 87.378906 98.277344 87.652344 97.867188 88.007812 97.511719 C 88.363281 97.160156 88.769531 96.886719 89.234375 96.695312 C 89.695312 96.503906 90.179688 96.40625 90.679688 96.40625 L 140.015625 96.40625 C 140.515625 96.40625 141 96.503906 141.460938 96.695312 C 141.925781 96.886719 142.332031 97.160156 142.6875 97.511719 C 143.042969 97.867188 143.316406 98.277344 143.507812 98.738281 C 143.699219 99.203125 143.792969 99.683594 143.792969 100.183594 C 143.792969 100.6875 143.699219 101.167969 143.507812 101.632812 C 143.316406 102.09375 143.042969 102.503906 142.6875 102.855469 C 142.332031 103.210938 141.925781 103.484375 141.460938 103.675781 C 141 103.867188 140.515625 103.964844 140.015625 103.964844 L 90.679688 103.964844 C 90.179688 103.964844 89.695312 103.867188 89.234375 103.675781 C 88.769531 103.484375 88.363281 103.210938 88.007812 102.855469 C 87.652344 102.503906 87.378906 102.09375 87.1875 101.632812 C 86.996094 101.167969 86.902344 100.6875 86.902344 100.183594 Z M 86.902344 130.175781 C 86.902344 129.671875 86.996094 129.191406 87.1875 128.726562 C 87.378906 128.265625 87.652344 127.855469 88.007812 127.503906 C 88.363281 127.148438 88.769531 126.875 89.234375 126.683594 C 89.695312 126.492188 90.179688 126.394531 90.679688 126.394531 L 236.847656 126.394531 C 237.351562 126.394531 237.832031 126.492188 238.292969 126.683594 C 238.757812 126.875 239.167969 127.148438 239.519531 127.503906 C 239.875 127.855469 240.148438 128.265625 240.339844 128.726562 C 240.53125 129.191406 240.628906 129.671875 240.628906 130.175781 C 240.628906 130.675781 240.53125 131.15625 240.339844 131.621094 C 240.148438 132.082031 239.875 132.492188 239.519531 132.847656 C 239.167969 133.199219 238.757812 133.472656 238.292969 133.664062 C 237.832031 133.855469 237.351562 133.953125 236.847656 133.953125 L 90.679688 133.953125 C 90.179688 133.953125 89.695312 133.855469 89.234375 133.664062 C 88.769531 133.472656 88.363281 133.199219 88.007812 132.847656 C 87.652344 132.492188 87.378906 132.082031 87.1875 131.621094 C 86.996094 131.15625 86.902344 130.675781 86.902344 130.175781 Z M 86.902344 147.9375 C 86.902344 147.433594 86.996094 146.953125 87.1875 146.488281 C 87.378906 146.027344 87.652344 145.617188 88.007812 145.265625 C 88.363281 144.910156 88.769531 144.636719 89.234375 144.445312 C 89.695312 144.253906 90.179688 144.15625 90.679688 144.15625 L 236.847656 144.15625 C 237.351562 144.15625 237.832031 144.25 238.296875 144.441406 C 238.761719 144.632812 239.171875 144.90625 239.527344 145.261719 C 239.878906 145.617188 240.152344 146.023438 240.347656 146.488281 C 240.539062 146.953125 240.636719 147.433594 240.636719 147.9375 C 240.636719 148.4375 240.539062 148.921875 240.347656 149.382812 C 240.152344 149.847656 239.878906 150.257812 239.527344 150.609375 C 239.171875 150.964844 238.761719 151.238281 238.296875 151.429688 C 237.832031 151.621094 237.351562 151.714844 236.847656 151.714844 L 90.679688 151.714844 C 90.179688 151.714844 89.695312 151.621094 89.234375 151.425781 C 88.769531 151.234375 88.363281 150.960938 88.007812 150.609375 C 87.652344 150.253906 87.378906 149.84375 87.1875 149.382812 C 86.996094 148.917969 86.902344 148.4375 86.902344 147.9375 Z M 240.628906 166.519531 C 240.628906 167.019531 240.53125 167.503906 240.339844 167.964844 C 240.148438 168.429688 239.875 168.835938 239.519531 169.191406 C 239.167969 169.546875 238.757812 169.816406 238.292969 170.011719 C 237.832031 170.203125 237.351562 170.296875 236.847656 170.296875 L 111.214844 170.296875 C 110.714844 170.296875 110.230469 170.203125 109.769531 170.011719 C 109.304688 169.816406 108.898438 169.546875 108.542969 169.191406 C 108.1875 168.835938 107.914062 168.429688 107.722656 167.964844 C 107.53125 167.5 107.433594 167.019531 107.433594 166.519531 C 107.433594 166.019531 107.53125 165.535156 107.722656 165.074219 C 107.914062 164.609375 108.1875 164.203125 108.542969 163.847656 C 108.898438 163.492188 109.304688 163.21875 109.769531 163.027344 C 110.230469 162.835938 110.714844 162.738281 111.214844 162.738281 L 236.847656 162.738281 C 237.351562 162.738281 237.832031 162.835938 238.292969 163.027344 C 238.757812 163.21875 239.167969 163.492188 239.519531 163.847656 C 239.875 164.199219 240.148438 164.609375 240.339844 165.074219 C 240.53125 165.535156 240.628906 166.015625 240.628906 166.519531 Z M 240.628906 166.519531 " fill-opacity="1" fill-rule="nonzero"/></g></svg>